<mxfile host="65bd71144e">
    <diagram name="PÃ¡gina-1" id="4fepIdYCEeFSJat0yLkn">
        <mxGraphModel dx="4877" dy="2153" grid="1" gridSize="10" guides="1" tooltips="1" connect="1" arrows="1" fold="1" page="1" pageScale="1" pageWidth="827" pageHeight="1169" background="#ffffff" math="0" shadow="0">
            <root>
                <mxCell id="0"/>
                <mxCell id="1" parent="0"/>
                <mxCell id="wMbG_U5TibeuyCvaz2eE-1" value="Program" style="text;html=1;strokeColor=none;fillColor=none;align=center;verticalAlign=middle;whiteSpace=wrap;rounded=0;fontStyle=0;labelBackgroundColor=none;fontColor=#000000;fontFamily=Sora;fontSource=https%3A%2F%2Ffonts.googleapis.com%2Fcss%3Ffamily%3DSora;fontSize=24;" parent="1" vertex="1">
                    <mxGeometry x="60" y="70" width="100" height="30" as="geometry"/>
                </mxCell>
                <mxCell id="wMbG_U5TibeuyCvaz2eE-2" value="Statement" style="text;html=1;strokeColor=none;fillColor=none;align=center;verticalAlign=middle;whiteSpace=wrap;rounded=0;fontStyle=0;labelBackgroundColor=none;fontColor=#000000;fontFamily=Sora;fontSource=https%3A%2F%2Ffonts.googleapis.com%2Fcss%3Ffamily%3DSora;fontSize=24;" parent="1" vertex="1">
                    <mxGeometry x="80" y="1169" width="140" height="30" as="geometry"/>
                </mxCell>
                <mxCell id="wMbG_U5TibeuyCvaz2eE-4" value="Expression" style="text;html=1;strokeColor=none;fillColor=none;align=center;verticalAlign=middle;whiteSpace=wrap;rounded=0;fontStyle=0;labelBackgroundColor=none;fontColor=#000000;fontFamily=Sora;fontSource=https%3A%2F%2Ffonts.googleapis.com%2Fcss%3Ffamily%3DSora;fontSize=24;" parent="1" vertex="1">
                    <mxGeometry x="80" y="376" width="140" height="30" as="geometry"/>
                </mxCell>
                <mxCell id="wMbG_U5TibeuyCvaz2eE-5" value="Term" style="text;html=1;strokeColor=none;fillColor=none;align=center;verticalAlign=middle;whiteSpace=wrap;rounded=0;fontStyle=0;labelBackgroundColor=none;fontColor=#000000;fontFamily=Sora;fontSource=https%3A%2F%2Ffonts.googleapis.com%2Fcss%3Ffamily%3DSora;fontSize=24;" parent="1" vertex="1">
                    <mxGeometry x="580" y="376" width="140" height="30" as="geometry"/>
                </mxCell>
                <mxCell id="wMbG_U5TibeuyCvaz2eE-6" value="Factor" style="text;html=1;strokeColor=none;fillColor=none;align=center;verticalAlign=middle;whiteSpace=wrap;rounded=0;fontStyle=0;labelBackgroundColor=none;fontColor=#000000;fontFamily=Sora;fontSource=https%3A%2F%2Ffonts.googleapis.com%2Fcss%3Ffamily%3DSora;fontSize=24;" parent="1" vertex="1">
                    <mxGeometry x="1355" y="2220" width="140" height="30" as="geometry"/>
                </mxCell>
                <mxCell id="wMbG_U5TibeuyCvaz2eE-7" value="&lt;span&gt;Declaration&lt;/span&gt;" style="rounded=0;whiteSpace=wrap;html=1;fontSize=24;fontFamily=Sora;fontSource=https%3A%2F%2Ffonts.googleapis.com%2Fcss%3Ffamily%3DSora;fontStyle=0" parent="1" vertex="1">
                    <mxGeometry x="170" y="160" width="150" height="60" as="geometry"/>
                </mxCell>
                <mxCell id="wMbG_U5TibeuyCvaz2eE-8" value="" style="endArrow=classic;html=1;rounded=0;fontSize=24;fontStyle=0;fontFamily=Sora;fontSource=https%3A%2F%2Ffonts.googleapis.com%2Fcss%3Ffamily%3DSora;" parent="1" edge="1">
                    <mxGeometry width="50" height="50" relative="1" as="geometry">
                        <mxPoint x="80" y="120" as="sourcePoint"/>
                        <mxPoint x="400" y="120" as="targetPoint"/>
                    </mxGeometry>
                </mxCell>
                <mxCell id="wMbG_U5TibeuyCvaz2eE-9" value="" style="endArrow=classic;html=1;rounded=0;fontSize=24;fontStyle=0;entryX=1;entryY=0.5;entryDx=0;entryDy=0;fontFamily=Sora;fontSource=https%3A%2F%2Ffonts.googleapis.com%2Fcss%3Ffamily%3DSora;" parent="1" target="wMbG_U5TibeuyCvaz2eE-7" edge="1">
                    <mxGeometry width="50" height="50" relative="1" as="geometry">
                        <mxPoint x="360" y="120" as="sourcePoint"/>
                        <mxPoint x="410" y="130" as="targetPoint"/>
                        <Array as="points">
                            <mxPoint x="360" y="190"/>
                        </Array>
                    </mxGeometry>
                </mxCell>
                <mxCell id="wMbG_U5TibeuyCvaz2eE-10" value="" style="endArrow=classic;html=1;rounded=0;fontSize=24;fontStyle=0;exitX=0;exitY=0.5;exitDx=0;exitDy=0;fontFamily=Sora;fontSource=https%3A%2F%2Ffonts.googleapis.com%2Fcss%3Ffamily%3DSora;" parent="1" source="wMbG_U5TibeuyCvaz2eE-7" edge="1">
                    <mxGeometry width="50" height="50" relative="1" as="geometry">
                        <mxPoint x="130" y="150" as="sourcePoint"/>
                        <mxPoint x="120" y="120" as="targetPoint"/>
                        <Array as="points">
                            <mxPoint x="120" y="190"/>
                        </Array>
                    </mxGeometry>
                </mxCell>
                <mxCell id="wMbG_U5TibeuyCvaz2eE-12" value="" style="endArrow=classic;html=1;rounded=0;fontSize=24;fontStyle=0;entryX=0;entryY=0.5;entryDx=0;entryDy=0;fontFamily=Sora;fontSource=https%3A%2F%2Ffonts.googleapis.com%2Fcss%3Ffamily%3DSora;" parent="1" target="wMbG_U5TibeuyCvaz2eE-20" edge="1">
                    <mxGeometry width="50" height="50" relative="1" as="geometry">
                        <mxPoint x="80" y="1223" as="sourcePoint"/>
                        <mxPoint x="870" y="1219" as="targetPoint"/>
                    </mxGeometry>
                </mxCell>
                <mxCell id="wMbG_U5TibeuyCvaz2eE-20" value="\n" style="ellipse;whiteSpace=wrap;html=1;fontSize=24;fontStyle=0;fontFamily=Sora;fontSource=https%3A%2F%2Ffonts.googleapis.com%2Fcss%3Ffamily%3DSora;" parent="1" vertex="1">
                    <mxGeometry x="1960" y="1183" width="80" height="80" as="geometry"/>
                </mxCell>
                <mxCell id="wMbG_U5TibeuyCvaz2eE-21" value="" style="endArrow=classic;html=1;rounded=0;fontSize=24;fontStyle=0;exitX=1;exitY=0.5;exitDx=0;exitDy=0;fontFamily=Sora;fontSource=https%3A%2F%2Ffonts.googleapis.com%2Fcss%3Ffamily%3DSora;" parent="1" source="wMbG_U5TibeuyCvaz2eE-20" edge="1">
                    <mxGeometry width="50" height="50" relative="1" as="geometry">
                        <mxPoint x="1510" y="1239" as="sourcePoint"/>
                        <mxPoint x="2200" y="1223" as="targetPoint"/>
                    </mxGeometry>
                </mxCell>
                <mxCell id="wMbG_U5TibeuyCvaz2eE-22" value="Boolean &lt;span&gt;Expression&lt;/span&gt;" style="rounded=0;whiteSpace=wrap;html=1;fontSize=24;fontFamily=Sora;fontSource=https%3A%2F%2Ffonts.googleapis.com%2Fcss%3Ffamily%3DSora;fontStyle=0" parent="1" vertex="1">
                    <mxGeometry x="550" y="1279" width="150" height="60" as="geometry"/>
                </mxCell>
                <mxCell id="wMbG_U5TibeuyCvaz2eE-23" value="" style="endArrow=classic;html=1;rounded=0;fontSize=24;fontStyle=0;entryX=0;entryY=0.5;entryDx=0;entryDy=0;fontFamily=Sora;fontSource=https%3A%2F%2Ffonts.googleapis.com%2Fcss%3Ffamily%3DSora;" parent="1" target="wMbG_U5TibeuyCvaz2eE-24" edge="1">
                    <mxGeometry width="50" height="50" relative="1" as="geometry">
                        <mxPoint x="120" y="1223" as="sourcePoint"/>
                        <mxPoint x="170" y="1309" as="targetPoint"/>
                        <Array as="points">
                            <mxPoint x="120" y="1309"/>
                        </Array>
                    </mxGeometry>
                </mxCell>
                <mxCell id="wMbG_U5TibeuyCvaz2eE-24" value="Println" style="ellipse;whiteSpace=wrap;html=1;fontSize=24;fontStyle=0;fontFamily=Sora;fontSource=https%3A%2F%2Ffonts.googleapis.com%2Fcss%3Ffamily%3DSora;" parent="1" vertex="1">
                    <mxGeometry x="170" y="1269" width="140" height="80" as="geometry"/>
                </mxCell>
                <mxCell id="wMbG_U5TibeuyCvaz2eE-25" value="" style="endArrow=classic;html=1;rounded=0;fontSize=24;fontStyle=0;exitX=1;exitY=0.5;exitDx=0;exitDy=0;fontFamily=Sora;fontSource=https%3A%2F%2Ffonts.googleapis.com%2Fcss%3Ffamily%3DSora;" parent="1" source="wMbG_U5TibeuyCvaz2eE-24" edge="1">
                    <mxGeometry width="50" height="50" relative="1" as="geometry">
                        <mxPoint x="380" y="1299" as="sourcePoint"/>
                        <mxPoint x="380" y="1309" as="targetPoint"/>
                        <Array as="points">
                            <mxPoint x="340" y="1309"/>
                        </Array>
                    </mxGeometry>
                </mxCell>
                <mxCell id="wMbG_U5TibeuyCvaz2eE-26" value="(" style="ellipse;whiteSpace=wrap;html=1;fontSize=24;fontStyle=0;fontFamily=Sora;fontSource=https%3A%2F%2Ffonts.googleapis.com%2Fcss%3Ffamily%3DSora;" parent="1" vertex="1">
                    <mxGeometry x="380" y="1269" width="80" height="80" as="geometry"/>
                </mxCell>
                <mxCell id="wMbG_U5TibeuyCvaz2eE-27" value="" style="endArrow=classic;html=1;rounded=0;fontSize=24;fontStyle=0;entryX=0;entryY=0.5;entryDx=0;entryDy=0;exitX=1;exitY=0.5;exitDx=0;exitDy=0;fontFamily=Sora;fontSource=https%3A%2F%2Ffonts.googleapis.com%2Fcss%3Ffamily%3DSora;" parent="1" source="wMbG_U5TibeuyCvaz2eE-26" target="wMbG_U5TibeuyCvaz2eE-22" edge="1">
                    <mxGeometry width="50" height="50" relative="1" as="geometry">
                        <mxPoint x="510" y="1329" as="sourcePoint"/>
                        <mxPoint x="470" y="1399" as="targetPoint"/>
                        <Array as="points"/>
                    </mxGeometry>
                </mxCell>
                <mxCell id="wMbG_U5TibeuyCvaz2eE-28" value="" style="endArrow=classic;html=1;rounded=0;fontSize=24;fontStyle=0;exitX=1;exitY=0.5;exitDx=0;exitDy=0;fontFamily=Sora;fontSource=https%3A%2F%2Ffonts.googleapis.com%2Fcss%3Ffamily%3DSora;" parent="1" source="wMbG_U5TibeuyCvaz2eE-30" edge="1">
                    <mxGeometry width="50" height="50" relative="1" as="geometry">
                        <mxPoint x="870" y="1319" as="sourcePoint"/>
                        <mxPoint x="960" y="1223" as="targetPoint"/>
                        <Array as="points">
                            <mxPoint x="960" y="1309"/>
                        </Array>
                    </mxGeometry>
                </mxCell>
                <mxCell id="wMbG_U5TibeuyCvaz2eE-29" value="" style="endArrow=classic;html=1;rounded=0;fontSize=24;fontStyle=0;exitX=1;exitY=0.5;exitDx=0;exitDy=0;fontFamily=Sora;fontSource=https%3A%2F%2Ffonts.googleapis.com%2Fcss%3Ffamily%3DSora;" parent="1" edge="1">
                    <mxGeometry width="50" height="50" relative="1" as="geometry">
                        <mxPoint x="700" y="1309" as="sourcePoint"/>
                        <mxPoint x="770" y="1309" as="targetPoint"/>
                        <Array as="points">
                            <mxPoint x="730" y="1309"/>
                        </Array>
                    </mxGeometry>
                </mxCell>
                <mxCell id="wMbG_U5TibeuyCvaz2eE-30" value=")" style="ellipse;whiteSpace=wrap;html=1;fontSize=24;fontStyle=0;fontFamily=Sora;fontSource=https%3A%2F%2Ffonts.googleapis.com%2Fcss%3Ffamily%3DSora;" parent="1" vertex="1">
                    <mxGeometry x="770" y="1269" width="80" height="80" as="geometry"/>
                </mxCell>
                <mxCell id="wMbG_U5TibeuyCvaz2eE-32" value="&lt;span&gt;Term&lt;/span&gt;" style="rounded=0;whiteSpace=wrap;html=1;fontSize=24;fontFamily=Sora;fontSource=https%3A%2F%2Ffonts.googleapis.com%2Fcss%3Ffamily%3DSora;fontStyle=0" parent="1" vertex="1">
                    <mxGeometry x="200" y="436" width="150" height="60" as="geometry"/>
                </mxCell>
                <mxCell id="wMbG_U5TibeuyCvaz2eE-33" value="" style="endArrow=classic;html=1;rounded=0;fontSize=24;fontStyle=0;entryX=0;entryY=0.5;entryDx=0;entryDy=0;fontFamily=Sora;fontSource=https%3A%2F%2Ffonts.googleapis.com%2Fcss%3Ffamily%3DSora;" parent="1" target="wMbG_U5TibeuyCvaz2eE-32" edge="1">
                    <mxGeometry width="50" height="50" relative="1" as="geometry">
                        <mxPoint x="80" y="466" as="sourcePoint"/>
                        <mxPoint x="205" y="466" as="targetPoint"/>
                    </mxGeometry>
                </mxCell>
                <mxCell id="wMbG_U5TibeuyCvaz2eE-36" value="" style="endArrow=classic;html=1;rounded=0;fontSize=24;fontStyle=0;entryX=0;entryY=0.5;entryDx=0;entryDy=0;exitX=1;exitY=0.5;exitDx=0;exitDy=0;fontFamily=Sora;fontSource=https%3A%2F%2Ffonts.googleapis.com%2Fcss%3Ffamily%3DSora;" parent="1" source="wMbG_U5TibeuyCvaz2eE-32" edge="1">
                    <mxGeometry width="50" height="50" relative="1" as="geometry">
                        <mxPoint x="360" y="465.58000000000004" as="sourcePoint"/>
                        <mxPoint x="480" y="465.58000000000004" as="targetPoint"/>
                    </mxGeometry>
                </mxCell>
                <mxCell id="wMbG_U5TibeuyCvaz2eE-37" value="" style="endArrow=classic;html=1;rounded=0;fontSize=24;fontStyle=0;entryX=1;entryY=0.5;entryDx=0;entryDy=0;fontFamily=Sora;fontSource=https%3A%2F%2Ffonts.googleapis.com%2Fcss%3Ffamily%3DSora;" parent="1" target="wMbG_U5TibeuyCvaz2eE-39" edge="1">
                    <mxGeometry width="50" height="50" relative="1" as="geometry">
                        <mxPoint x="400" y="466" as="sourcePoint"/>
                        <mxPoint x="400" y="556" as="targetPoint"/>
                        <Array as="points">
                            <mxPoint x="400" y="556"/>
                        </Array>
                    </mxGeometry>
                </mxCell>
                <mxCell id="wMbG_U5TibeuyCvaz2eE-39" value="+" style="ellipse;whiteSpace=wrap;html=1;fontSize=24;fontStyle=0;fontFamily=Sora;fontSource=https%3A%2F%2Ffonts.googleapis.com%2Fcss%3Ffamily%3DSora;" parent="1" vertex="1">
                    <mxGeometry x="230" y="516" width="80" height="80" as="geometry"/>
                </mxCell>
                <mxCell id="wMbG_U5TibeuyCvaz2eE-40" value="-" style="ellipse;whiteSpace=wrap;html=1;fontSize=24;fontStyle=0;fontFamily=Sora;fontSource=https%3A%2F%2Ffonts.googleapis.com%2Fcss%3Ffamily%3DSora;" parent="1" vertex="1">
                    <mxGeometry x="230" y="616" width="80" height="80" as="geometry"/>
                </mxCell>
                <mxCell id="wMbG_U5TibeuyCvaz2eE-41" value="" style="endArrow=classic;html=1;rounded=0;fontSize=24;fontStyle=0;entryX=1;entryY=0.5;entryDx=0;entryDy=0;fontFamily=Sora;fontSource=https%3A%2F%2Ffonts.googleapis.com%2Fcss%3Ffamily%3DSora;" parent="1" target="wMbG_U5TibeuyCvaz2eE-40" edge="1">
                    <mxGeometry width="50" height="50" relative="1" as="geometry">
                        <mxPoint x="400" y="466" as="sourcePoint"/>
                        <mxPoint x="320" y="566" as="targetPoint"/>
                        <Array as="points">
                            <mxPoint x="400" y="656"/>
                        </Array>
                    </mxGeometry>
                </mxCell>
                <mxCell id="wMbG_U5TibeuyCvaz2eE-42" value="" style="endArrow=classic;html=1;rounded=0;fontSize=24;fontStyle=0;exitX=0;exitY=0.5;exitDx=0;exitDy=0;fontFamily=Sora;fontSource=https%3A%2F%2Ffonts.googleapis.com%2Fcss%3Ffamily%3DSora;" parent="1" source="wMbG_U5TibeuyCvaz2eE-40" edge="1">
                    <mxGeometry width="50" height="50" relative="1" as="geometry">
                        <mxPoint x="170" y="496" as="sourcePoint"/>
                        <mxPoint x="120" y="466" as="targetPoint"/>
                        <Array as="points">
                            <mxPoint x="120" y="656"/>
                        </Array>
                    </mxGeometry>
                </mxCell>
                <mxCell id="wMbG_U5TibeuyCvaz2eE-43" value="" style="endArrow=classic;html=1;rounded=0;fontSize=24;fontStyle=0;exitX=0;exitY=0.5;exitDx=0;exitDy=0;fontFamily=Sora;fontSource=https%3A%2F%2Ffonts.googleapis.com%2Fcss%3Ffamily%3DSora;" parent="1" source="wMbG_U5TibeuyCvaz2eE-39" edge="1">
                    <mxGeometry width="50" height="50" relative="1" as="geometry">
                        <mxPoint x="240" y="666" as="sourcePoint"/>
                        <mxPoint x="120" y="466" as="targetPoint"/>
                        <Array as="points">
                            <mxPoint x="120" y="556"/>
                        </Array>
                    </mxGeometry>
                </mxCell>
                <mxCell id="wMbG_U5TibeuyCvaz2eE-45" value="&lt;span&gt;Factor&lt;/span&gt;" style="rounded=0;whiteSpace=wrap;html=1;fontSize=24;fontFamily=Sora;fontSource=https%3A%2F%2Ffonts.googleapis.com%2Fcss%3Ffamily%3DSora;fontStyle=0" parent="1" vertex="1">
                    <mxGeometry x="700" y="436" width="150" height="60" as="geometry"/>
                </mxCell>
                <mxCell id="wMbG_U5TibeuyCvaz2eE-46" value="" style="endArrow=classic;html=1;rounded=0;fontSize=24;fontStyle=0;entryX=0;entryY=0.5;entryDx=0;entryDy=0;fontFamily=Sora;fontSource=https%3A%2F%2Ffonts.googleapis.com%2Fcss%3Ffamily%3DSora;" parent="1" target="wMbG_U5TibeuyCvaz2eE-45" edge="1">
                    <mxGeometry width="50" height="50" relative="1" as="geometry">
                        <mxPoint x="580" y="466" as="sourcePoint"/>
                        <mxPoint x="705" y="466" as="targetPoint"/>
                    </mxGeometry>
                </mxCell>
                <mxCell id="wMbG_U5TibeuyCvaz2eE-47" value="" style="endArrow=classic;html=1;rounded=0;fontSize=24;fontStyle=0;entryX=0;entryY=0.5;entryDx=0;entryDy=0;exitX=1;exitY=0.5;exitDx=0;exitDy=0;fontFamily=Sora;fontSource=https%3A%2F%2Ffonts.googleapis.com%2Fcss%3Ffamily%3DSora;" parent="1" source="wMbG_U5TibeuyCvaz2eE-45" edge="1">
                    <mxGeometry width="50" height="50" relative="1" as="geometry">
                        <mxPoint x="860" y="465.58000000000004" as="sourcePoint"/>
                        <mxPoint x="980" y="465.58000000000004" as="targetPoint"/>
                    </mxGeometry>
                </mxCell>
                <mxCell id="wMbG_U5TibeuyCvaz2eE-48" value="" style="endArrow=classic;html=1;rounded=0;fontSize=24;fontStyle=0;entryX=1;entryY=0.5;entryDx=0;entryDy=0;fontFamily=Sora;fontSource=https%3A%2F%2Ffonts.googleapis.com%2Fcss%3Ffamily%3DSora;" parent="1" target="wMbG_U5TibeuyCvaz2eE-49" edge="1">
                    <mxGeometry width="50" height="50" relative="1" as="geometry">
                        <mxPoint x="900" y="466" as="sourcePoint"/>
                        <mxPoint x="900" y="556" as="targetPoint"/>
                        <Array as="points">
                            <mxPoint x="900" y="556"/>
                        </Array>
                    </mxGeometry>
                </mxCell>
                <mxCell id="wMbG_U5TibeuyCvaz2eE-49" value="*" style="ellipse;whiteSpace=wrap;html=1;fontSize=24;fontStyle=0;fontFamily=Sora;fontSource=https%3A%2F%2Ffonts.googleapis.com%2Fcss%3Ffamily%3DSora;" parent="1" vertex="1">
                    <mxGeometry x="730" y="516" width="80" height="80" as="geometry"/>
                </mxCell>
                <mxCell id="wMbG_U5TibeuyCvaz2eE-50" value="/" style="ellipse;whiteSpace=wrap;html=1;fontSize=24;fontStyle=0;fontFamily=Sora;fontSource=https%3A%2F%2Ffonts.googleapis.com%2Fcss%3Ffamily%3DSora;" parent="1" vertex="1">
                    <mxGeometry x="730" y="616" width="80" height="80" as="geometry"/>
                </mxCell>
                <mxCell id="wMbG_U5TibeuyCvaz2eE-51" value="" style="endArrow=classic;html=1;rounded=0;fontSize=24;fontStyle=0;entryX=1;entryY=0.5;entryDx=0;entryDy=0;fontFamily=Sora;fontSource=https%3A%2F%2Ffonts.googleapis.com%2Fcss%3Ffamily%3DSora;" parent="1" target="wMbG_U5TibeuyCvaz2eE-50" edge="1">
                    <mxGeometry width="50" height="50" relative="1" as="geometry">
                        <mxPoint x="900" y="466" as="sourcePoint"/>
                        <mxPoint x="820" y="566" as="targetPoint"/>
                        <Array as="points">
                            <mxPoint x="900" y="656"/>
                        </Array>
                    </mxGeometry>
                </mxCell>
                <mxCell id="wMbG_U5TibeuyCvaz2eE-52" value="" style="endArrow=classic;html=1;rounded=0;fontSize=24;fontStyle=0;exitX=0;exitY=0.5;exitDx=0;exitDy=0;fontFamily=Sora;fontSource=https%3A%2F%2Ffonts.googleapis.com%2Fcss%3Ffamily%3DSora;" parent="1" source="wMbG_U5TibeuyCvaz2eE-50" edge="1">
                    <mxGeometry width="50" height="50" relative="1" as="geometry">
                        <mxPoint x="670" y="496" as="sourcePoint"/>
                        <mxPoint x="620" y="466" as="targetPoint"/>
                        <Array as="points">
                            <mxPoint x="620" y="656"/>
                        </Array>
                    </mxGeometry>
                </mxCell>
                <mxCell id="wMbG_U5TibeuyCvaz2eE-53" value="" style="endArrow=classic;html=1;rounded=0;fontSize=24;fontStyle=0;exitX=0;exitY=0.5;exitDx=0;exitDy=0;fontFamily=Sora;fontSource=https%3A%2F%2Ffonts.googleapis.com%2Fcss%3Ffamily%3DSora;" parent="1" source="wMbG_U5TibeuyCvaz2eE-49" edge="1">
                    <mxGeometry width="50" height="50" relative="1" as="geometry">
                        <mxPoint x="740" y="666" as="sourcePoint"/>
                        <mxPoint x="620" y="466" as="targetPoint"/>
                        <Array as="points">
                            <mxPoint x="620" y="556"/>
                        </Array>
                    </mxGeometry>
                </mxCell>
                <mxCell id="wMbG_U5TibeuyCvaz2eE-56" value="" style="endArrow=classic;html=1;rounded=0;fontSize=24;fontStyle=0;entryX=0;entryY=0.5;entryDx=0;entryDy=0;fontFamily=Sora;fontSource=https%3A%2F%2Ffonts.googleapis.com%2Fcss%3Ffamily%3DSora;" parent="1" edge="1">
                    <mxGeometry width="50" height="50" relative="1" as="geometry">
                        <mxPoint x="1355" y="2310" as="sourcePoint"/>
                        <mxPoint x="1475" y="2310" as="targetPoint"/>
                    </mxGeometry>
                </mxCell>
                <mxCell id="wMbG_U5TibeuyCvaz2eE-57" value="" style="endArrow=classic;html=1;rounded=0;fontSize=24;fontStyle=0;exitX=1;exitY=0.5;exitDx=0;exitDy=0;fontFamily=Sora;fontSource=https%3A%2F%2Ffonts.googleapis.com%2Fcss%3Ffamily%3DSora;" parent="1" source="wMbG_U5TibeuyCvaz2eE-64" edge="1">
                    <mxGeometry width="50" height="50" relative="1" as="geometry">
                        <mxPoint x="1625" y="2310" as="sourcePoint"/>
                        <mxPoint x="2370" y="2310" as="targetPoint"/>
                    </mxGeometry>
                </mxCell>
                <mxCell id="wMbG_U5TibeuyCvaz2eE-64" value="Number" style="ellipse;whiteSpace=wrap;html=1;fontSize=24;fontStyle=0;fontFamily=Sora;fontSource=https%3A%2F%2Ffonts.googleapis.com%2Fcss%3Ffamily%3DSora;" parent="1" vertex="1">
                    <mxGeometry x="1475" y="2270" width="140" height="80" as="geometry"/>
                </mxCell>
                <mxCell id="wMbG_U5TibeuyCvaz2eE-67" value="" style="endArrow=classic;html=1;rounded=0;fontSize=24;fontStyle=0;entryX=0;entryY=0.5;entryDx=0;entryDy=0;fontFamily=Sora;fontSource=https%3A%2F%2Ffonts.googleapis.com%2Fcss%3Ffamily%3DSora;" parent="1" edge="1">
                    <mxGeometry width="50" height="50" relative="1" as="geometry">
                        <mxPoint x="1405" y="2310" as="sourcePoint"/>
                        <mxPoint x="1475" y="2400" as="targetPoint"/>
                        <Array as="points">
                            <mxPoint x="1405" y="2400"/>
                        </Array>
                    </mxGeometry>
                </mxCell>
                <mxCell id="wMbG_U5TibeuyCvaz2eE-68" value="" style="endArrow=classic;html=1;rounded=0;fontSize=24;fontStyle=0;exitX=1;exitY=0.5;exitDx=0;exitDy=0;fontFamily=Sora;fontSource=https%3A%2F%2Ffonts.googleapis.com%2Fcss%3Ffamily%3DSora;" parent="1" source="wMbG_U5TibeuyCvaz2eE-69" edge="1">
                    <mxGeometry width="50" height="50" relative="1" as="geometry">
                        <mxPoint x="1625" y="2400" as="sourcePoint"/>
                        <mxPoint x="2320" y="2310" as="targetPoint"/>
                        <Array as="points">
                            <mxPoint x="2320" y="2400"/>
                        </Array>
                    </mxGeometry>
                </mxCell>
                <mxCell id="wMbG_U5TibeuyCvaz2eE-69" value="String" style="ellipse;whiteSpace=wrap;html=1;fontSize=24;fontStyle=0;fontFamily=Sora;fontSource=https%3A%2F%2Ffonts.googleapis.com%2Fcss%3Ffamily%3DSora;" parent="1" vertex="1">
                    <mxGeometry x="1475" y="2360" width="140" height="80" as="geometry"/>
                </mxCell>
                <mxCell id="wMbG_U5TibeuyCvaz2eE-70" value="" style="endArrow=classic;html=1;rounded=0;fontSize=24;fontStyle=0;entryX=0;entryY=0.5;entryDx=0;entryDy=0;fontFamily=Sora;fontSource=https%3A%2F%2Ffonts.googleapis.com%2Fcss%3Ffamily%3DSora;" parent="1" target="wMbG_U5TibeuyCvaz2eE-73" edge="1">
                    <mxGeometry width="50" height="50" relative="1" as="geometry">
                        <mxPoint x="1405" y="2560" as="sourcePoint"/>
                        <mxPoint x="1475" y="2930" as="targetPoint"/>
                        <Array as="points">
                            <mxPoint x="1405" y="3024"/>
                        </Array>
                    </mxGeometry>
                </mxCell>
                <mxCell id="wMbG_U5TibeuyCvaz2eE-73" value="+" style="ellipse;whiteSpace=wrap;html=1;fontSize=24;fontStyle=0;fontFamily=Sora;fontSource=https%3A%2F%2Ffonts.googleapis.com%2Fcss%3Ffamily%3DSora;" parent="1" vertex="1">
                    <mxGeometry x="1475" y="2985" width="80" height="80" as="geometry"/>
                </mxCell>
                <mxCell id="wMbG_U5TibeuyCvaz2eE-74" value="-" style="ellipse;whiteSpace=wrap;html=1;fontSize=24;fontStyle=0;fontFamily=Sora;fontSource=https%3A%2F%2Ffonts.googleapis.com%2Fcss%3Ffamily%3DSora;" parent="1" vertex="1">
                    <mxGeometry x="1475.5" y="3080" width="80" height="80" as="geometry"/>
                </mxCell>
                <mxCell id="wMbG_U5TibeuyCvaz2eE-75" value="&lt;span&gt;Factor&lt;/span&gt;" style="rounded=0;whiteSpace=wrap;html=1;fontSize=24;fontFamily=Sora;fontSource=https%3A%2F%2Ffonts.googleapis.com%2Fcss%3Ffamily%3DSora;fontStyle=0" parent="1" vertex="1">
                    <mxGeometry x="1605" y="2995" width="150" height="60" as="geometry"/>
                </mxCell>
                <mxCell id="wMbG_U5TibeuyCvaz2eE-76" value="" style="endArrow=classic;html=1;rounded=0;fontSize=24;fontStyle=0;exitX=1;exitY=0.5;exitDx=0;exitDy=0;fontFamily=Sora;fontSource=https%3A%2F%2Ffonts.googleapis.com%2Fcss%3Ffamily%3DSora;" parent="1" source="wMbG_U5TibeuyCvaz2eE-75" edge="1">
                    <mxGeometry width="50" height="50" relative="1" as="geometry">
                        <mxPoint x="1415" y="2850" as="sourcePoint"/>
                        <mxPoint x="2320" y="2310" as="targetPoint"/>
                        <Array as="points">
                            <mxPoint x="2320" y="3030"/>
                        </Array>
                    </mxGeometry>
                </mxCell>
                <mxCell id="wMbG_U5TibeuyCvaz2eE-77" value="" style="endArrow=classic;html=1;rounded=0;fontSize=24;fontStyle=0;entryX=0;entryY=0.5;entryDx=0;entryDy=0;exitX=1;exitY=0.5;exitDx=0;exitDy=0;fontFamily=Sora;fontSource=https%3A%2F%2Ffonts.googleapis.com%2Fcss%3Ffamily%3DSora;" parent="1" source="wMbG_U5TibeuyCvaz2eE-73" target="wMbG_U5TibeuyCvaz2eE-75" edge="1">
                    <mxGeometry width="50" height="50" relative="1" as="geometry">
                        <mxPoint x="1385" y="3045" as="sourcePoint"/>
                        <mxPoint x="1295" y="3135" as="targetPoint"/>
                        <Array as="points"/>
                    </mxGeometry>
                </mxCell>
                <mxCell id="wMbG_U5TibeuyCvaz2eE-78" value="" style="endArrow=classic;html=1;rounded=0;fontSize=24;fontStyle=0;fontFamily=Sora;fontSource=https%3A%2F%2Ffonts.googleapis.com%2Fcss%3Ffamily%3DSora;entryX=0;entryY=0.5;entryDx=0;entryDy=0;" parent="1" edge="1" target="wMbG_U5TibeuyCvaz2eE-74">
                    <mxGeometry width="50" height="50" relative="1" as="geometry">
                        <mxPoint x="1405" y="2750" as="sourcePoint"/>
                        <mxPoint x="1470" y="3100" as="targetPoint"/>
                        <Array as="points">
                            <mxPoint x="1405" y="3120"/>
                        </Array>
                    </mxGeometry>
                </mxCell>
                <mxCell id="wMbG_U5TibeuyCvaz2eE-79" value="" style="endArrow=classic;html=1;rounded=0;fontSize=24;fontStyle=0;entryX=0;entryY=0.5;entryDx=0;entryDy=0;exitX=1;exitY=0.5;exitDx=0;exitDy=0;fontFamily=Sora;fontSource=https%3A%2F%2Ffonts.googleapis.com%2Fcss%3Ffamily%3DSora;" parent="1" source="wMbG_U5TibeuyCvaz2eE-74" target="wMbG_U5TibeuyCvaz2eE-75" edge="1">
                    <mxGeometry width="50" height="50" relative="1" as="geometry">
                        <mxPoint x="1565" y="3035" as="sourcePoint"/>
                        <mxPoint x="1615" y="3035" as="targetPoint"/>
                        <Array as="points">
                            <mxPoint x="1560" y="3120"/>
                            <mxPoint x="1575" y="3120"/>
                            <mxPoint x="1575" y="3025"/>
                        </Array>
                    </mxGeometry>
                </mxCell>
                <mxCell id="wMbG_U5TibeuyCvaz2eE-80" value="&lt;span&gt;Boolean Expression&lt;br&gt;&lt;/span&gt;" style="rounded=0;whiteSpace=wrap;html=1;fontSize=24;fontFamily=Sora;fontSource=https%3A%2F%2Ffonts.googleapis.com%2Fcss%3Ffamily%3DSora;fontStyle=0" parent="1" vertex="1">
                    <mxGeometry x="1595" y="3275" width="150" height="60" as="geometry"/>
                </mxCell>
                <mxCell id="wMbG_U5TibeuyCvaz2eE-81" value="(" style="ellipse;whiteSpace=wrap;html=1;fontSize=24;fontStyle=0;fontFamily=Sora;fontSource=https%3A%2F%2Ffonts.googleapis.com%2Fcss%3Ffamily%3DSora;" parent="1" vertex="1">
                    <mxGeometry x="1475.5" y="3265" width="80" height="80" as="geometry"/>
                </mxCell>
                <mxCell id="wMbG_U5TibeuyCvaz2eE-82" value="" style="endArrow=classic;html=1;rounded=0;fontSize=24;fontStyle=0;exitX=1;exitY=0.5;exitDx=0;exitDy=0;fontFamily=Sora;fontSource=https%3A%2F%2Ffonts.googleapis.com%2Fcss%3Ffamily%3DSora;entryX=0;entryY=0.5;entryDx=0;entryDy=0;" parent="1" source="wMbG_U5TibeuyCvaz2eE-81" edge="1" target="wMbG_U5TibeuyCvaz2eE-80">
                    <mxGeometry width="50" height="50" relative="1" as="geometry">
                        <mxPoint x="1525" y="3325" as="sourcePoint"/>
                        <mxPoint x="1580" y="3280" as="targetPoint"/>
                        <Array as="points"/>
                    </mxGeometry>
                </mxCell>
                <mxCell id="wMbG_U5TibeuyCvaz2eE-83" value="" style="endArrow=classic;html=1;rounded=0;fontSize=24;fontStyle=0;exitX=1;exitY=0.5;exitDx=0;exitDy=0;entryX=0;entryY=0.5;entryDx=0;entryDy=0;fontFamily=Sora;fontSource=https%3A%2F%2Ffonts.googleapis.com%2Fcss%3Ffamily%3DSora;" parent="1" source="wMbG_U5TibeuyCvaz2eE-80" target="wMbG_U5TibeuyCvaz2eE-84" edge="1">
                    <mxGeometry width="50" height="50" relative="1" as="geometry">
                        <mxPoint x="1715" y="3305" as="sourcePoint"/>
                        <mxPoint x="1785" y="3305" as="targetPoint"/>
                        <Array as="points">
                            <mxPoint x="1745" y="3305"/>
                        </Array>
                    </mxGeometry>
                </mxCell>
                <mxCell id="wMbG_U5TibeuyCvaz2eE-84" value=")" style="ellipse;whiteSpace=wrap;html=1;fontSize=24;fontStyle=0;fontFamily=Sora;fontSource=https%3A%2F%2Ffonts.googleapis.com%2Fcss%3Ffamily%3DSora;" parent="1" vertex="1">
                    <mxGeometry x="1785" y="3265" width="80" height="80" as="geometry"/>
                </mxCell>
                <mxCell id="wMbG_U5TibeuyCvaz2eE-86" value="" style="endArrow=classic;html=1;rounded=0;fontSize=24;fontStyle=0;exitX=1;exitY=0.5;exitDx=0;exitDy=0;fontFamily=Sora;fontSource=https%3A%2F%2Ffonts.googleapis.com%2Fcss%3Ffamily%3DSora;" parent="1" source="wMbG_U5TibeuyCvaz2eE-84" edge="1">
                    <mxGeometry width="50" height="50" relative="1" as="geometry">
                        <mxPoint x="1765" y="3040" as="sourcePoint"/>
                        <mxPoint x="2320" y="2310" as="targetPoint"/>
                        <Array as="points">
                            <mxPoint x="2320" y="3305"/>
                        </Array>
                    </mxGeometry>
                </mxCell>
                <mxCell id="wMbG_U5TibeuyCvaz2eE-87" value="" style="endArrow=classic;html=1;rounded=0;fontSize=24;fontStyle=0;fontFamily=Sora;fontSource=https%3A%2F%2Ffonts.googleapis.com%2Fcss%3Ffamily%3DSora;entryX=0;entryY=0.5;entryDx=0;entryDy=0;" parent="1" target="wMbG_U5TibeuyCvaz2eE-81" edge="1">
                    <mxGeometry width="50" height="50" relative="1" as="geometry">
                        <mxPoint x="1405" y="2560" as="sourcePoint"/>
                        <mxPoint x="1460" y="3300" as="targetPoint"/>
                        <Array as="points">
                            <mxPoint x="1405" y="3305"/>
                        </Array>
                    </mxGeometry>
                </mxCell>
                <mxCell id="BKlgi4SIrofSlWjP2YXj-1" value="Boolean Expression" style="text;html=1;strokeColor=none;fillColor=none;align=center;verticalAlign=middle;whiteSpace=wrap;rounded=0;fontStyle=0;labelBackgroundColor=none;fontColor=#000000;fontFamily=Sora;fontSource=https%3A%2F%2Ffonts.googleapis.com%2Fcss%3Ffamily%3DSora;fontSize=24;" parent="1" vertex="1">
                    <mxGeometry x="80" y="870" width="140" height="30" as="geometry"/>
                </mxCell>
                <mxCell id="BKlgi4SIrofSlWjP2YXj-2" value="Boolean Term" style="text;html=1;strokeColor=none;fillColor=none;align=center;verticalAlign=middle;whiteSpace=wrap;rounded=0;fontStyle=0;labelBackgroundColor=none;fontColor=#000000;fontFamily=Sora;fontSource=https%3A%2F%2Ffonts.googleapis.com%2Fcss%3Ffamily%3DSora;fontSize=24;" parent="1" vertex="1">
                    <mxGeometry x="580" y="870" width="140" height="30" as="geometry"/>
                </mxCell>
                <mxCell id="BKlgi4SIrofSlWjP2YXj-3" value="&lt;span&gt;Boolean Term&lt;/span&gt;" style="rounded=0;whiteSpace=wrap;html=1;fontSize=24;fontFamily=Sora;fontSource=https%3A%2F%2Ffonts.googleapis.com%2Fcss%3Ffamily%3DSora;fontStyle=0" parent="1" vertex="1">
                    <mxGeometry x="200" y="930" width="150" height="60" as="geometry"/>
                </mxCell>
                <mxCell id="BKlgi4SIrofSlWjP2YXj-4" value="" style="endArrow=classic;html=1;rounded=0;fontSize=24;fontStyle=0;entryX=0;entryY=0.5;entryDx=0;entryDy=0;fontFamily=Sora;fontSource=https%3A%2F%2Ffonts.googleapis.com%2Fcss%3Ffamily%3DSora;" parent="1" target="BKlgi4SIrofSlWjP2YXj-3" edge="1">
                    <mxGeometry width="50" height="50" relative="1" as="geometry">
                        <mxPoint x="80" y="960" as="sourcePoint"/>
                        <mxPoint x="205" y="960" as="targetPoint"/>
                    </mxGeometry>
                </mxCell>
                <mxCell id="BKlgi4SIrofSlWjP2YXj-5" value="" style="endArrow=classic;html=1;rounded=0;fontSize=24;fontStyle=0;entryX=0;entryY=0.5;entryDx=0;entryDy=0;exitX=1;exitY=0.5;exitDx=0;exitDy=0;fontFamily=Sora;fontSource=https%3A%2F%2Ffonts.googleapis.com%2Fcss%3Ffamily%3DSora;" parent="1" source="BKlgi4SIrofSlWjP2YXj-3" edge="1">
                    <mxGeometry width="50" height="50" relative="1" as="geometry">
                        <mxPoint x="360" y="959.58" as="sourcePoint"/>
                        <mxPoint x="480" y="959.58" as="targetPoint"/>
                    </mxGeometry>
                </mxCell>
                <mxCell id="BKlgi4SIrofSlWjP2YXj-6" value="" style="endArrow=classic;html=1;rounded=0;fontSize=24;fontStyle=0;entryX=1;entryY=0.5;entryDx=0;entryDy=0;fontFamily=Sora;fontSource=https%3A%2F%2Ffonts.googleapis.com%2Fcss%3Ffamily%3DSora;" parent="1" target="BKlgi4SIrofSlWjP2YXj-7" edge="1">
                    <mxGeometry width="50" height="50" relative="1" as="geometry">
                        <mxPoint x="400" y="960" as="sourcePoint"/>
                        <mxPoint x="400" y="1050" as="targetPoint"/>
                        <Array as="points">
                            <mxPoint x="400" y="1050"/>
                        </Array>
                    </mxGeometry>
                </mxCell>
                <mxCell id="BKlgi4SIrofSlWjP2YXj-7" value="||" style="ellipse;whiteSpace=wrap;html=1;fontSize=24;fontStyle=0;fontFamily=Sora;fontSource=https%3A%2F%2Ffonts.googleapis.com%2Fcss%3Ffamily%3DSora;" parent="1" vertex="1">
                    <mxGeometry x="230" y="1010" width="80" height="80" as="geometry"/>
                </mxCell>
                <mxCell id="BKlgi4SIrofSlWjP2YXj-11" value="" style="endArrow=classic;html=1;rounded=0;fontSize=24;fontStyle=0;exitX=0;exitY=0.5;exitDx=0;exitDy=0;fontFamily=Sora;fontSource=https%3A%2F%2Ffonts.googleapis.com%2Fcss%3Ffamily%3DSora;" parent="1" source="BKlgi4SIrofSlWjP2YXj-7" edge="1">
                    <mxGeometry width="50" height="50" relative="1" as="geometry">
                        <mxPoint x="240" y="1160" as="sourcePoint"/>
                        <mxPoint x="120" y="960" as="targetPoint"/>
                        <Array as="points">
                            <mxPoint x="120" y="1050"/>
                        </Array>
                    </mxGeometry>
                </mxCell>
                <mxCell id="BKlgi4SIrofSlWjP2YXj-12" value="&lt;span&gt;Relational Expression&lt;br&gt;&lt;/span&gt;" style="rounded=0;whiteSpace=wrap;html=1;fontSize=24;fontFamily=Sora;fontSource=https%3A%2F%2Ffonts.googleapis.com%2Fcss%3Ffamily%3DSora;fontStyle=0" parent="1" vertex="1">
                    <mxGeometry x="700" y="930" width="150" height="60" as="geometry"/>
                </mxCell>
                <mxCell id="BKlgi4SIrofSlWjP2YXj-13" value="" style="endArrow=classic;html=1;rounded=0;fontSize=24;fontStyle=0;entryX=0;entryY=0.5;entryDx=0;entryDy=0;fontFamily=Sora;fontSource=https%3A%2F%2Ffonts.googleapis.com%2Fcss%3Ffamily%3DSora;" parent="1" target="BKlgi4SIrofSlWjP2YXj-12" edge="1">
                    <mxGeometry width="50" height="50" relative="1" as="geometry">
                        <mxPoint x="580" y="960" as="sourcePoint"/>
                        <mxPoint x="705" y="960" as="targetPoint"/>
                    </mxGeometry>
                </mxCell>
                <mxCell id="BKlgi4SIrofSlWjP2YXj-14" value="" style="endArrow=classic;html=1;rounded=0;fontSize=24;fontStyle=0;entryX=0;entryY=0.5;entryDx=0;entryDy=0;exitX=1;exitY=0.5;exitDx=0;exitDy=0;fontFamily=Sora;fontSource=https%3A%2F%2Ffonts.googleapis.com%2Fcss%3Ffamily%3DSora;" parent="1" source="BKlgi4SIrofSlWjP2YXj-12" edge="1">
                    <mxGeometry width="50" height="50" relative="1" as="geometry">
                        <mxPoint x="860" y="959.58" as="sourcePoint"/>
                        <mxPoint x="980" y="959.58" as="targetPoint"/>
                    </mxGeometry>
                </mxCell>
                <mxCell id="BKlgi4SIrofSlWjP2YXj-15" value="" style="endArrow=classic;html=1;rounded=0;fontSize=24;fontStyle=0;entryX=1;entryY=0.5;entryDx=0;entryDy=0;fontFamily=Sora;fontSource=https%3A%2F%2Ffonts.googleapis.com%2Fcss%3Ffamily%3DSora;" parent="1" target="BKlgi4SIrofSlWjP2YXj-16" edge="1">
                    <mxGeometry width="50" height="50" relative="1" as="geometry">
                        <mxPoint x="900" y="960" as="sourcePoint"/>
                        <mxPoint x="900" y="1050" as="targetPoint"/>
                        <Array as="points">
                            <mxPoint x="900" y="1050"/>
                        </Array>
                    </mxGeometry>
                </mxCell>
                <mxCell id="BKlgi4SIrofSlWjP2YXj-16" value="&amp;amp;&amp;amp;" style="ellipse;whiteSpace=wrap;html=1;fontSize=24;fontStyle=0;fontFamily=Sora;fontSource=https%3A%2F%2Ffonts.googleapis.com%2Fcss%3Ffamily%3DSora;" parent="1" vertex="1">
                    <mxGeometry x="730" y="1010" width="80" height="80" as="geometry"/>
                </mxCell>
                <mxCell id="BKlgi4SIrofSlWjP2YXj-20" value="" style="endArrow=classic;html=1;rounded=0;fontSize=24;fontStyle=0;exitX=0;exitY=0.5;exitDx=0;exitDy=0;fontFamily=Sora;fontSource=https%3A%2F%2Ffonts.googleapis.com%2Fcss%3Ffamily%3DSora;" parent="1" source="BKlgi4SIrofSlWjP2YXj-16" edge="1">
                    <mxGeometry width="50" height="50" relative="1" as="geometry">
                        <mxPoint x="740" y="1160" as="sourcePoint"/>
                        <mxPoint x="620" y="960" as="targetPoint"/>
                        <Array as="points">
                            <mxPoint x="620" y="1050"/>
                        </Array>
                    </mxGeometry>
                </mxCell>
                <mxCell id="BKlgi4SIrofSlWjP2YXj-21" value="Relational Expression" style="text;html=1;strokeColor=none;fillColor=none;align=center;verticalAlign=middle;whiteSpace=wrap;rounded=0;fontStyle=0;labelBackgroundColor=none;fontColor=#000000;fontFamily=Sora;fontSource=https%3A%2F%2Ffonts.googleapis.com%2Fcss%3Ffamily%3DSora;fontSize=24;" parent="1" vertex="1">
                    <mxGeometry x="1050" y="600" width="140" height="30" as="geometry"/>
                </mxCell>
                <mxCell id="BKlgi4SIrofSlWjP2YXj-22" value="&lt;span&gt;Expression&lt;/span&gt;" style="rounded=0;whiteSpace=wrap;html=1;fontSize=24;fontFamily=Sora;fontSource=https%3A%2F%2Ffonts.googleapis.com%2Fcss%3Ffamily%3DSora;fontStyle=0" parent="1" vertex="1">
                    <mxGeometry x="1170" y="660" width="150" height="60" as="geometry"/>
                </mxCell>
                <mxCell id="BKlgi4SIrofSlWjP2YXj-23" value="" style="endArrow=classic;html=1;rounded=0;fontSize=24;fontStyle=0;entryX=0;entryY=0.5;entryDx=0;entryDy=0;fontFamily=Sora;fontSource=https%3A%2F%2Ffonts.googleapis.com%2Fcss%3Ffamily%3DSora;" parent="1" target="BKlgi4SIrofSlWjP2YXj-22" edge="1">
                    <mxGeometry width="50" height="50" relative="1" as="geometry">
                        <mxPoint x="1050" y="690" as="sourcePoint"/>
                        <mxPoint x="1175" y="690" as="targetPoint"/>
                    </mxGeometry>
                </mxCell>
                <mxCell id="BKlgi4SIrofSlWjP2YXj-24" value="" style="endArrow=classic;html=1;rounded=0;fontSize=24;fontStyle=0;entryX=0;entryY=0.5;entryDx=0;entryDy=0;exitX=1;exitY=0.5;exitDx=0;exitDy=0;fontFamily=Sora;fontSource=https%3A%2F%2Ffonts.googleapis.com%2Fcss%3Ffamily%3DSora;" parent="1" source="BKlgi4SIrofSlWjP2YXj-22" edge="1">
                    <mxGeometry width="50" height="50" relative="1" as="geometry">
                        <mxPoint x="1330" y="689.5799999999999" as="sourcePoint"/>
                        <mxPoint x="1450" y="689.5799999999999" as="targetPoint"/>
                    </mxGeometry>
                </mxCell>
                <mxCell id="BKlgi4SIrofSlWjP2YXj-26" value="==" style="ellipse;whiteSpace=wrap;html=1;fontSize=24;fontStyle=0;fontFamily=Sora;fontSource=https%3A%2F%2Ffonts.googleapis.com%2Fcss%3Ffamily%3DSora;" parent="1" vertex="1">
                    <mxGeometry x="1200" y="740" width="80" height="80" as="geometry"/>
                </mxCell>
                <mxCell id="BKlgi4SIrofSlWjP2YXj-27" value="&amp;gt;" style="ellipse;whiteSpace=wrap;html=1;fontSize=24;fontStyle=0;fontFamily=Sora;fontSource=https%3A%2F%2Ffonts.googleapis.com%2Fcss%3Ffamily%3DSora;" parent="1" vertex="1">
                    <mxGeometry x="1200" y="840" width="80" height="80" as="geometry"/>
                </mxCell>
                <mxCell id="BKlgi4SIrofSlWjP2YXj-31" value="&amp;lt;" style="ellipse;whiteSpace=wrap;html=1;fontSize=24;fontStyle=0;fontFamily=Sora;fontSource=https%3A%2F%2Ffonts.googleapis.com%2Fcss%3Ffamily%3DSora;" parent="1" vertex="1">
                    <mxGeometry x="1200" y="940" width="80" height="80" as="geometry"/>
                </mxCell>
                <mxCell id="BKlgi4SIrofSlWjP2YXj-34" value="!" style="ellipse;whiteSpace=wrap;html=1;fontSize=24;fontStyle=0;fontFamily=Sora;fontSource=https%3A%2F%2Ffonts.googleapis.com%2Fcss%3Ffamily%3DSora;" parent="1" vertex="1">
                    <mxGeometry x="1475.5" y="3180" width="80" height="80" as="geometry"/>
                </mxCell>
                <mxCell id="BKlgi4SIrofSlWjP2YXj-35" value="" style="endArrow=classic;html=1;rounded=0;fontSize=24;fontStyle=0;fontFamily=Sora;fontSource=https%3A%2F%2Ffonts.googleapis.com%2Fcss%3Ffamily%3DSora;entryX=0;entryY=0.5;entryDx=0;entryDy=0;" parent="1" edge="1" target="BKlgi4SIrofSlWjP2YXj-34">
                    <mxGeometry width="50" height="50" relative="1" as="geometry">
                        <mxPoint x="1405" y="2750" as="sourcePoint"/>
                        <mxPoint x="1460" y="3180" as="targetPoint"/>
                        <Array as="points">
                            <mxPoint x="1405" y="3220"/>
                        </Array>
                    </mxGeometry>
                </mxCell>
                <mxCell id="BKlgi4SIrofSlWjP2YXj-36" value="" style="endArrow=classic;html=1;rounded=0;fontSize=24;fontStyle=0;entryX=0;entryY=0.5;entryDx=0;entryDy=0;exitX=1;exitY=0.5;exitDx=0;exitDy=0;fontFamily=Sora;fontSource=https%3A%2F%2Ffonts.googleapis.com%2Fcss%3Ffamily%3DSora;" parent="1" source="BKlgi4SIrofSlWjP2YXj-34" target="wMbG_U5TibeuyCvaz2eE-75" edge="1">
                    <mxGeometry width="50" height="50" relative="1" as="geometry">
                        <mxPoint x="1565" y="3125" as="sourcePoint"/>
                        <mxPoint x="1605" y="3115" as="targetPoint"/>
                        <Array as="points">
                            <mxPoint x="1575" y="3220"/>
                            <mxPoint x="1575" y="3025"/>
                        </Array>
                    </mxGeometry>
                </mxCell>
                <mxCell id="BKlgi4SIrofSlWjP2YXj-37" value="Block" style="text;html=1;strokeColor=none;fillColor=none;align=center;verticalAlign=middle;whiteSpace=wrap;rounded=0;fontStyle=0;labelBackgroundColor=none;fontColor=#000000;fontFamily=Sora;fontSource=https%3A%2F%2Ffonts.googleapis.com%2Fcss%3Ffamily%3DSora;fontSize=24;" parent="1" vertex="1">
                    <mxGeometry x="1540" y="540" width="100" height="30" as="geometry"/>
                </mxCell>
                <mxCell id="BKlgi4SIrofSlWjP2YXj-38" value="&lt;span&gt;Statement&lt;/span&gt;" style="rounded=0;whiteSpace=wrap;html=1;fontSize=24;fontFamily=Sora;fontSource=https%3A%2F%2Ffonts.googleapis.com%2Fcss%3Ffamily%3DSora;fontStyle=0" parent="1" vertex="1">
                    <mxGeometry x="1960" y="680" width="150" height="60" as="geometry"/>
                </mxCell>
                <mxCell id="BKlgi4SIrofSlWjP2YXj-39" value="" style="endArrow=classic;html=1;rounded=0;fontSize=24;fontStyle=0;entryX=0;entryY=0.5;entryDx=0;entryDy=0;fontFamily=Sora;fontSource=https%3A%2F%2Ffonts.googleapis.com%2Fcss%3Ffamily%3DSora;" parent="1" target="BKlgi4SIrofSlWjP2YXj-42" edge="1">
                    <mxGeometry width="50" height="50" relative="1" as="geometry">
                        <mxPoint x="1560" y="630" as="sourcePoint"/>
                        <mxPoint x="1660" y="630" as="targetPoint"/>
                    </mxGeometry>
                </mxCell>
                <mxCell id="BKlgi4SIrofSlWjP2YXj-42" value="{" style="ellipse;whiteSpace=wrap;html=1;fontSize=24;fontStyle=0;fontFamily=Sora;fontSource=https%3A%2F%2Ffonts.googleapis.com%2Fcss%3Ffamily%3DSora;" parent="1" vertex="1">
                    <mxGeometry x="1660" y="590" width="80" height="80" as="geometry"/>
                </mxCell>
                <mxCell id="BKlgi4SIrofSlWjP2YXj-43" value="" style="endArrow=classic;html=1;rounded=0;fontSize=24;fontStyle=0;entryX=0;entryY=0.5;entryDx=0;entryDy=0;fontFamily=Sora;fontSource=https%3A%2F%2Ffonts.googleapis.com%2Fcss%3Ffamily%3DSora;" parent="1" target="BKlgi4SIrofSlWjP2YXj-44" edge="1">
                    <mxGeometry width="50" height="50" relative="1" as="geometry">
                        <mxPoint x="1740" y="630" as="sourcePoint"/>
                        <mxPoint x="1790" y="630" as="targetPoint"/>
                    </mxGeometry>
                </mxCell>
                <mxCell id="BKlgi4SIrofSlWjP2YXj-44" value="\n" style="ellipse;whiteSpace=wrap;html=1;fontSize=24;fontStyle=0;fontFamily=Sora;fontSource=https%3A%2F%2Ffonts.googleapis.com%2Fcss%3Ffamily%3DSora;" parent="1" vertex="1">
                    <mxGeometry x="1790" y="590" width="80" height="80" as="geometry"/>
                </mxCell>
                <mxCell id="BKlgi4SIrofSlWjP2YXj-45" value="" style="endArrow=classic;html=1;rounded=0;fontSize=24;fontStyle=0;entryX=0;entryY=0.5;entryDx=0;entryDy=0;exitX=1;exitY=0.5;exitDx=0;exitDy=0;fontFamily=Sora;fontSource=https%3A%2F%2Ffonts.googleapis.com%2Fcss%3Ffamily%3DSora;" parent="1" source="BKlgi4SIrofSlWjP2YXj-44" target="BKlgi4SIrofSlWjP2YXj-46" edge="1">
                    <mxGeometry width="50" height="50" relative="1" as="geometry">
                        <mxPoint x="1890" y="630" as="sourcePoint"/>
                        <mxPoint x="1990" y="630" as="targetPoint"/>
                    </mxGeometry>
                </mxCell>
                <mxCell id="BKlgi4SIrofSlWjP2YXj-46" value="}" style="ellipse;whiteSpace=wrap;html=1;fontSize=24;fontStyle=0;fontFamily=Sora;fontSource=https%3A%2F%2Ffonts.googleapis.com%2Fcss%3Ffamily%3DSora;" parent="1" vertex="1">
                    <mxGeometry x="2220" y="590" width="80" height="80" as="geometry"/>
                </mxCell>
                <mxCell id="BKlgi4SIrofSlWjP2YXj-47" value="" style="endArrow=classic;html=1;rounded=0;fontSize=24;fontStyle=0;exitX=1;exitY=0.5;exitDx=0;exitDy=0;fontFamily=Sora;fontSource=https%3A%2F%2Ffonts.googleapis.com%2Fcss%3Ffamily%3DSora;" parent="1" source="BKlgi4SIrofSlWjP2YXj-46" edge="1">
                    <mxGeometry width="50" height="50" relative="1" as="geometry">
                        <mxPoint x="1880" y="640" as="sourcePoint"/>
                        <mxPoint x="2400" y="630" as="targetPoint"/>
                    </mxGeometry>
                </mxCell>
                <mxCell id="BKlgi4SIrofSlWjP2YXj-51" value="" style="endArrow=classic;html=1;rounded=0;fontSize=24;fontStyle=0;entryX=0;entryY=0.5;entryDx=0;entryDy=0;fontFamily=Sora;fontSource=https%3A%2F%2Ffonts.googleapis.com%2Fcss%3Ffamily%3DSora;" parent="1" target="BKlgi4SIrofSlWjP2YXj-52" edge="1">
                    <mxGeometry width="50" height="50" relative="1" as="geometry">
                        <mxPoint x="120" y="1223" as="sourcePoint"/>
                        <mxPoint x="170" y="1434" as="targetPoint"/>
                        <Array as="points">
                            <mxPoint x="120" y="1414"/>
                        </Array>
                    </mxGeometry>
                </mxCell>
                <mxCell id="BKlgi4SIrofSlWjP2YXj-52" value="if" style="ellipse;whiteSpace=wrap;html=1;fontSize=24;fontStyle=0;fontFamily=Sora;fontSource=https%3A%2F%2Ffonts.googleapis.com%2Fcss%3Ffamily%3DSora;" parent="1" vertex="1">
                    <mxGeometry x="170" y="1374" width="140" height="80" as="geometry"/>
                </mxCell>
                <mxCell id="BKlgi4SIrofSlWjP2YXj-53" value="Boolean &lt;span&gt;Expression&lt;/span&gt;" style="rounded=0;whiteSpace=wrap;html=1;fontSize=24;fontFamily=Sora;fontSource=https%3A%2F%2Ffonts.googleapis.com%2Fcss%3Ffamily%3DSora;fontStyle=0" parent="1" vertex="1">
                    <mxGeometry x="370" y="1384" width="150" height="60" as="geometry"/>
                </mxCell>
                <mxCell id="BKlgi4SIrofSlWjP2YXj-54" value="" style="endArrow=classic;html=1;rounded=0;fontSize=24;fontStyle=0;entryX=0;entryY=0.5;entryDx=0;entryDy=0;fontFamily=Sora;fontSource=https%3A%2F%2Ffonts.googleapis.com%2Fcss%3Ffamily%3DSora;" parent="1" target="BKlgi4SIrofSlWjP2YXj-53" edge="1">
                    <mxGeometry width="50" height="50" relative="1" as="geometry">
                        <mxPoint x="310" y="1414" as="sourcePoint"/>
                        <mxPoint x="290" y="1504" as="targetPoint"/>
                        <Array as="points"/>
                    </mxGeometry>
                </mxCell>
                <mxCell id="BKlgi4SIrofSlWjP2YXj-55" value="Block" style="rounded=0;whiteSpace=wrap;html=1;fontSize=24;fontFamily=Sora;fontSource=https%3A%2F%2Ffonts.googleapis.com%2Fcss%3Ffamily%3DSora;fontStyle=0" parent="1" vertex="1">
                    <mxGeometry x="573" y="1384" width="150" height="60" as="geometry"/>
                </mxCell>
                <mxCell id="BKlgi4SIrofSlWjP2YXj-56" value="" style="endArrow=classic;html=1;rounded=0;fontSize=24;fontStyle=0;entryX=0;entryY=0.5;entryDx=0;entryDy=0;fontFamily=Sora;fontSource=https%3A%2F%2Ffonts.googleapis.com%2Fcss%3Ffamily%3DSora;" parent="1" target="BKlgi4SIrofSlWjP2YXj-55" edge="1">
                    <mxGeometry width="50" height="50" relative="1" as="geometry">
                        <mxPoint x="520" y="1414" as="sourcePoint"/>
                        <mxPoint x="493" y="1504" as="targetPoint"/>
                        <Array as="points"/>
                    </mxGeometry>
                </mxCell>
                <mxCell id="BKlgi4SIrofSlWjP2YXj-57" value="" style="endArrow=classic;html=1;rounded=0;fontSize=24;fontStyle=0;exitX=1;exitY=0.5;exitDx=0;exitDy=0;fontFamily=Sora;fontSource=https%3A%2F%2Ffonts.googleapis.com%2Fcss%3Ffamily%3DSora;" parent="1" source="BKlgi4SIrofSlWjP2YXj-55" edge="1">
                    <mxGeometry width="50" height="50" relative="1" as="geometry">
                        <mxPoint x="790" y="1404" as="sourcePoint"/>
                        <mxPoint x="1040" y="1223" as="targetPoint"/>
                        <Array as="points">
                            <mxPoint x="1040" y="1414"/>
                        </Array>
                    </mxGeometry>
                </mxCell>
                <mxCell id="BKlgi4SIrofSlWjP2YXj-59" value="else" style="ellipse;whiteSpace=wrap;html=1;fontSize=24;fontStyle=0;fontFamily=Sora;fontSource=https%3A%2F%2Ffonts.googleapis.com%2Fcss%3Ffamily%3DSora;" parent="1" vertex="1">
                    <mxGeometry x="810" y="1454" width="140" height="80" as="geometry"/>
                </mxCell>
                <mxCell id="BKlgi4SIrofSlWjP2YXj-60" value="Block" style="rounded=0;whiteSpace=wrap;html=1;fontSize=24;fontFamily=Sora;fontSource=https%3A%2F%2Ffonts.googleapis.com%2Fcss%3Ffamily%3DSora;fontStyle=0" parent="1" vertex="1">
                    <mxGeometry x="1010" y="1464" width="150" height="60" as="geometry"/>
                </mxCell>
                <mxCell id="BKlgi4SIrofSlWjP2YXj-61" value="" style="endArrow=classic;html=1;rounded=0;fontSize=24;fontStyle=0;entryX=0;entryY=0.5;entryDx=0;entryDy=0;exitX=1;exitY=0.5;exitDx=0;exitDy=0;fontFamily=Sora;fontSource=https%3A%2F%2Ffonts.googleapis.com%2Fcss%3Ffamily%3DSora;" parent="1" source="BKlgi4SIrofSlWjP2YXj-59" target="BKlgi4SIrofSlWjP2YXj-60" edge="1">
                    <mxGeometry width="50" height="50" relative="1" as="geometry">
                        <mxPoint x="1030" y="1494" as="sourcePoint"/>
                        <mxPoint x="920" y="1599" as="targetPoint"/>
                        <Array as="points"/>
                    </mxGeometry>
                </mxCell>
                <mxCell id="BKlgi4SIrofSlWjP2YXj-62" value="" style="endArrow=classic;html=1;rounded=0;fontSize=24;fontStyle=0;entryX=0;entryY=0.5;entryDx=0;entryDy=0;fontFamily=Sora;fontSource=https%3A%2F%2Ffonts.googleapis.com%2Fcss%3Ffamily%3DSora;" parent="1" target="BKlgi4SIrofSlWjP2YXj-59" edge="1">
                    <mxGeometry width="50" height="50" relative="1" as="geometry">
                        <mxPoint x="760" y="1414" as="sourcePoint"/>
                        <mxPoint x="810" y="1493.58" as="targetPoint"/>
                        <Array as="points">
                            <mxPoint x="760" y="1494"/>
                        </Array>
                    </mxGeometry>
                </mxCell>
                <mxCell id="BKlgi4SIrofSlWjP2YXj-63" value="" style="endArrow=classic;html=1;rounded=0;fontSize=24;fontStyle=0;exitX=1;exitY=0.5;exitDx=0;exitDy=0;fontFamily=Sora;fontSource=https%3A%2F%2Ffonts.googleapis.com%2Fcss%3Ffamily%3DSora;" parent="1" source="BKlgi4SIrofSlWjP2YXj-60" edge="1">
                    <mxGeometry width="50" height="50" relative="1" as="geometry">
                        <mxPoint x="1250" y="1494" as="sourcePoint"/>
                        <mxPoint x="1210" y="1223" as="targetPoint"/>
                        <Array as="points">
                            <mxPoint x="1210" y="1494"/>
                        </Array>
                    </mxGeometry>
                </mxCell>
                <mxCell id="BKlgi4SIrofSlWjP2YXj-64" value="" style="endArrow=classic;html=1;rounded=0;fontSize=24;fontStyle=0;entryX=0;entryY=0.5;entryDx=0;entryDy=0;fontFamily=Sora;fontSource=https%3A%2F%2Ffonts.googleapis.com%2Fcss%3Ffamily%3DSora;" parent="1" target="BKlgi4SIrofSlWjP2YXj-65" edge="1">
                    <mxGeometry width="50" height="50" relative="1" as="geometry">
                        <mxPoint x="1405" y="2320" as="sourcePoint"/>
                        <mxPoint x="1475" y="3330" as="targetPoint"/>
                        <Array as="points">
                            <mxPoint x="1405" y="3415"/>
                        </Array>
                    </mxGeometry>
                </mxCell>
                <mxCell id="BKlgi4SIrofSlWjP2YXj-65" value="Scanln" style="ellipse;whiteSpace=wrap;html=1;fontSize=24;fontStyle=0;fontFamily=Sora;fontSource=https%3A%2F%2Ffonts.googleapis.com%2Fcss%3Ffamily%3DSora;" parent="1" vertex="1">
                    <mxGeometry x="1455" y="3374" width="140" height="80" as="geometry"/>
                </mxCell>
                <mxCell id="BKlgi4SIrofSlWjP2YXj-67" value="(" style="ellipse;whiteSpace=wrap;html=1;fontSize=24;fontStyle=0;fontFamily=Sora;fontSource=https%3A%2F%2Ffonts.googleapis.com%2Fcss%3Ffamily%3DSora;" parent="1" vertex="1">
                    <mxGeometry x="1640" y="3374" width="80" height="80" as="geometry"/>
                </mxCell>
                <mxCell id="BKlgi4SIrofSlWjP2YXj-68" value="" style="endArrow=classic;html=1;rounded=0;fontSize=24;fontStyle=0;exitX=1;exitY=0.5;exitDx=0;exitDy=0;entryX=0;entryY=0.5;entryDx=0;entryDy=0;fontFamily=Sora;fontSource=https%3A%2F%2Ffonts.googleapis.com%2Fcss%3Ffamily%3DSora;" parent="1" source="BKlgi4SIrofSlWjP2YXj-67" target="BKlgi4SIrofSlWjP2YXj-69" edge="1">
                    <mxGeometry width="50" height="50" relative="1" as="geometry">
                        <mxPoint x="1745" y="3415" as="sourcePoint"/>
                        <mxPoint x="1785" y="3415" as="targetPoint"/>
                        <Array as="points"/>
                    </mxGeometry>
                </mxCell>
                <mxCell id="BKlgi4SIrofSlWjP2YXj-69" value=")" style="ellipse;whiteSpace=wrap;html=1;fontSize=24;fontStyle=0;fontFamily=Sora;fontSource=https%3A%2F%2Ffonts.googleapis.com%2Fcss%3Ffamily%3DSora;" parent="1" vertex="1">
                    <mxGeometry x="1785" y="3374" width="80" height="80" as="geometry"/>
                </mxCell>
                <mxCell id="BKlgi4SIrofSlWjP2YXj-70" value="" style="endArrow=classic;html=1;rounded=0;fontSize=24;fontStyle=0;exitX=1;exitY=0.5;exitDx=0;exitDy=0;fontFamily=Sora;fontSource=https%3A%2F%2Ffonts.googleapis.com%2Fcss%3Ffamily%3DSora;" parent="1" source="BKlgi4SIrofSlWjP2YXj-69" edge="1">
                    <mxGeometry width="50" height="50" relative="1" as="geometry">
                        <mxPoint x="1865" y="3310" as="sourcePoint"/>
                        <mxPoint x="2320" y="2310" as="targetPoint"/>
                        <Array as="points">
                            <mxPoint x="1885" y="3414"/>
                            <mxPoint x="2320" y="3414"/>
                        </Array>
                    </mxGeometry>
                </mxCell>
                <mxCell id="BKlgi4SIrofSlWjP2YXj-71" value="" style="endArrow=classic;html=1;rounded=0;fontSize=24;fontStyle=0;entryX=0;entryY=0.5;entryDx=0;entryDy=0;fontFamily=Sora;fontSource=https%3A%2F%2Ffonts.googleapis.com%2Fcss%3Ffamily%3DSora;" parent="1" target="BKlgi4SIrofSlWjP2YXj-72" edge="1">
                    <mxGeometry width="50" height="50" relative="1" as="geometry">
                        <mxPoint x="120" y="1223" as="sourcePoint"/>
                        <mxPoint x="165" y="1639" as="targetPoint"/>
                        <Array as="points">
                            <mxPoint x="120" y="1619"/>
                        </Array>
                    </mxGeometry>
                </mxCell>
                <mxCell id="BKlgi4SIrofSlWjP2YXj-72" value="for" style="ellipse;whiteSpace=wrap;html=1;fontSize=24;fontStyle=0;fontFamily=Sora;fontSource=https%3A%2F%2Ffonts.googleapis.com%2Fcss%3Ffamily%3DSora;" parent="1" vertex="1">
                    <mxGeometry x="165" y="1579" width="140" height="80" as="geometry"/>
                </mxCell>
                <mxCell id="BKlgi4SIrofSlWjP2YXj-73" value="" style="endArrow=classic;html=1;rounded=0;fontSize=24;fontStyle=0;entryX=0;entryY=0.5;entryDx=0;entryDy=0;fontFamily=Sora;fontSource=https%3A%2F%2Ffonts.googleapis.com%2Fcss%3Ffamily%3DSora;" parent="1" target="BKlgi4SIrofSlWjP2YXj-74" edge="1">
                    <mxGeometry width="50" height="50" relative="1" as="geometry">
                        <mxPoint x="305" y="1619" as="sourcePoint"/>
                        <mxPoint x="365" y="1619" as="targetPoint"/>
                        <Array as="points"/>
                    </mxGeometry>
                </mxCell>
                <mxCell id="BKlgi4SIrofSlWjP2YXj-74" value="Assign" style="rounded=0;whiteSpace=wrap;html=1;fontSize=24;fontFamily=Sora;fontSource=https%3A%2F%2Ffonts.googleapis.com%2Fcss%3Ffamily%3DSora;fontStyle=0" parent="1" vertex="1">
                    <mxGeometry x="370" y="1589" width="150" height="60" as="geometry"/>
                </mxCell>
                <mxCell id="BKlgi4SIrofSlWjP2YXj-75" value="Boolean &lt;span&gt;Expression&lt;/span&gt;" style="rounded=0;whiteSpace=wrap;html=1;fontSize=24;fontFamily=Sora;fontSource=https%3A%2F%2Ffonts.googleapis.com%2Fcss%3Ffamily%3DSora;fontStyle=0" parent="1" vertex="1">
                    <mxGeometry x="590" y="2280" width="150" height="60" as="geometry"/>
                </mxCell>
                <mxCell id="BKlgi4SIrofSlWjP2YXj-76" value="" style="endArrow=classic;html=1;rounded=0;fontSize=24;fontStyle=0;entryX=0;entryY=0.5;entryDx=0;entryDy=0;fontFamily=Sora;fontSource=https%3A%2F%2Ffonts.googleapis.com%2Fcss%3Ffamily%3DSora;" parent="1" target="BKlgi4SIrofSlWjP2YXj-77" edge="1">
                    <mxGeometry width="50" height="50" relative="1" as="geometry">
                        <mxPoint x="130" y="2310" as="sourcePoint"/>
                        <mxPoint x="210" y="2310" as="targetPoint"/>
                        <Array as="points">
                            <mxPoint x="160" y="2310"/>
                        </Array>
                    </mxGeometry>
                </mxCell>
                <mxCell id="BKlgi4SIrofSlWjP2YXj-77" value="Identifier" style="ellipse;whiteSpace=wrap;html=1;fontSize=24;fontStyle=0;fontFamily=Sora;fontSource=https%3A%2F%2Ffonts.googleapis.com%2Fcss%3Ffamily%3DSora;" parent="1" vertex="1">
                    <mxGeometry x="210" y="2270" width="140" height="80" as="geometry"/>
                </mxCell>
                <mxCell id="BKlgi4SIrofSlWjP2YXj-78" value="" style="endArrow=classic;html=1;rounded=0;fontSize=24;fontStyle=0;exitX=1;exitY=0.5;exitDx=0;exitDy=0;fontFamily=Sora;fontSource=https%3A%2F%2Ffonts.googleapis.com%2Fcss%3Ffamily%3DSora;" parent="1" source="BKlgi4SIrofSlWjP2YXj-77" edge="1">
                    <mxGeometry width="50" height="50" relative="1" as="geometry">
                        <mxPoint x="420" y="2300" as="sourcePoint"/>
                        <mxPoint x="420" y="2310" as="targetPoint"/>
                        <Array as="points">
                            <mxPoint x="380" y="2310"/>
                        </Array>
                    </mxGeometry>
                </mxCell>
                <mxCell id="BKlgi4SIrofSlWjP2YXj-79" value="=" style="ellipse;whiteSpace=wrap;html=1;fontSize=24;fontStyle=0;fontFamily=Sora;fontSource=https%3A%2F%2Ffonts.googleapis.com%2Fcss%3Ffamily%3DSora;" parent="1" vertex="1">
                    <mxGeometry x="420" y="2270" width="80" height="80" as="geometry"/>
                </mxCell>
                <mxCell id="BKlgi4SIrofSlWjP2YXj-80" value="" style="endArrow=classic;html=1;rounded=0;fontSize=24;fontStyle=0;entryX=0;entryY=0.5;entryDx=0;entryDy=0;exitX=1;exitY=0.5;exitDx=0;exitDy=0;fontFamily=Sora;fontSource=https%3A%2F%2Ffonts.googleapis.com%2Fcss%3Ffamily%3DSora;" parent="1" source="BKlgi4SIrofSlWjP2YXj-79" target="BKlgi4SIrofSlWjP2YXj-75" edge="1">
                    <mxGeometry width="50" height="50" relative="1" as="geometry">
                        <mxPoint x="550" y="2330" as="sourcePoint"/>
                        <mxPoint x="510" y="2400" as="targetPoint"/>
                        <Array as="points"/>
                    </mxGeometry>
                </mxCell>
                <mxCell id="BKlgi4SIrofSlWjP2YXj-81" value="" style="endArrow=classic;html=1;rounded=0;fontSize=24;fontStyle=0;exitX=1;exitY=0.5;exitDx=0;exitDy=0;fontFamily=Sora;fontSource=https%3A%2F%2Ffonts.googleapis.com%2Fcss%3Ffamily%3DSora;" parent="1" source="BKlgi4SIrofSlWjP2YXj-75" edge="1">
                    <mxGeometry width="50" height="50" relative="1" as="geometry">
                        <mxPoint x="437" y="2470" as="sourcePoint"/>
                        <mxPoint x="1080" y="2310" as="targetPoint"/>
                        <Array as="points">
                            <mxPoint x="830" y="2310"/>
                        </Array>
                    </mxGeometry>
                </mxCell>
                <mxCell id="BKlgi4SIrofSlWjP2YXj-83" value="" style="endArrow=classic;html=1;rounded=0;fontSize=24;fontStyle=0;exitX=1;exitY=0.5;exitDx=0;exitDy=0;fontFamily=Sora;fontSource=https%3A%2F%2Ffonts.googleapis.com%2Fcss%3Ffamily%3DSora;" parent="1" edge="1">
                    <mxGeometry width="50" height="50" relative="1" as="geometry">
                        <mxPoint x="520" y="1619" as="sourcePoint"/>
                        <mxPoint x="590" y="1619" as="targetPoint"/>
                        <Array as="points">
                            <mxPoint x="550" y="1619"/>
                        </Array>
                    </mxGeometry>
                </mxCell>
                <mxCell id="BKlgi4SIrofSlWjP2YXj-84" value=";" style="ellipse;whiteSpace=wrap;html=1;fontSize=24;fontStyle=0;fontFamily=Sora;fontSource=https%3A%2F%2Ffonts.googleapis.com%2Fcss%3Ffamily%3DSora;" parent="1" vertex="1">
                    <mxGeometry x="590" y="1579" width="80" height="80" as="geometry"/>
                </mxCell>
                <mxCell id="BKlgi4SIrofSlWjP2YXj-85" value="" style="endArrow=classic;html=1;rounded=0;fontSize=24;fontStyle=0;entryX=0;entryY=0.5;entryDx=0;entryDy=0;fontFamily=Sora;fontSource=https%3A%2F%2Ffonts.googleapis.com%2Fcss%3Ffamily%3DSora;" parent="1" target="BKlgi4SIrofSlWjP2YXj-86" edge="1">
                    <mxGeometry width="50" height="50" relative="1" as="geometry">
                        <mxPoint x="670" y="1619" as="sourcePoint"/>
                        <mxPoint x="730" y="1619" as="targetPoint"/>
                        <Array as="points"/>
                    </mxGeometry>
                </mxCell>
                <mxCell id="BKlgi4SIrofSlWjP2YXj-86" value="Boolean Expression" style="rounded=0;whiteSpace=wrap;html=1;fontSize=24;fontFamily=Sora;fontSource=https%3A%2F%2Ffonts.googleapis.com%2Fcss%3Ffamily%3DSora;fontStyle=0" parent="1" vertex="1">
                    <mxGeometry x="735" y="1589" width="150" height="60" as="geometry"/>
                </mxCell>
                <mxCell id="BKlgi4SIrofSlWjP2YXj-87" value="" style="endArrow=classic;html=1;rounded=0;fontSize=24;fontStyle=0;exitX=1;exitY=0.5;exitDx=0;exitDy=0;fontFamily=Sora;fontSource=https%3A%2F%2Ffonts.googleapis.com%2Fcss%3Ffamily%3DSora;" parent="1" edge="1">
                    <mxGeometry width="50" height="50" relative="1" as="geometry">
                        <mxPoint x="885" y="1619" as="sourcePoint"/>
                        <mxPoint x="955" y="1619" as="targetPoint"/>
                        <Array as="points">
                            <mxPoint x="915" y="1619"/>
                        </Array>
                    </mxGeometry>
                </mxCell>
                <mxCell id="BKlgi4SIrofSlWjP2YXj-88" value=";" style="ellipse;whiteSpace=wrap;html=1;fontSize=24;fontStyle=0;fontFamily=Sora;fontSource=https%3A%2F%2Ffonts.googleapis.com%2Fcss%3Ffamily%3DSora;" parent="1" vertex="1">
                    <mxGeometry x="955" y="1579" width="80" height="80" as="geometry"/>
                </mxCell>
                <mxCell id="BKlgi4SIrofSlWjP2YXj-89" value="" style="endArrow=classic;html=1;rounded=0;fontSize=24;fontStyle=0;entryX=0;entryY=0.5;entryDx=0;entryDy=0;fontFamily=Sora;fontSource=https%3A%2F%2Ffonts.googleapis.com%2Fcss%3Ffamily%3DSora;" parent="1" target="BKlgi4SIrofSlWjP2YXj-90" edge="1">
                    <mxGeometry width="50" height="50" relative="1" as="geometry">
                        <mxPoint x="1035" y="1619" as="sourcePoint"/>
                        <mxPoint x="1095" y="1619" as="targetPoint"/>
                        <Array as="points"/>
                    </mxGeometry>
                </mxCell>
                <mxCell id="BKlgi4SIrofSlWjP2YXj-90" value="Assign" style="rounded=0;whiteSpace=wrap;html=1;fontSize=24;fontFamily=Sora;fontSource=https%3A%2F%2Ffonts.googleapis.com%2Fcss%3Ffamily%3DSora;fontStyle=0" parent="1" vertex="1">
                    <mxGeometry x="1100" y="1589" width="150" height="60" as="geometry"/>
                </mxCell>
                <mxCell id="BKlgi4SIrofSlWjP2YXj-91" value="" style="endArrow=classic;html=1;rounded=0;fontSize=24;fontStyle=0;exitX=1;exitY=0.5;exitDx=0;exitDy=0;entryX=0;entryY=0.5;entryDx=0;entryDy=0;fontFamily=Sora;fontSource=https%3A%2F%2Ffonts.googleapis.com%2Fcss%3Ffamily%3DSora;" parent="1" target="BKlgi4SIrofSlWjP2YXj-93" edge="1">
                    <mxGeometry width="50" height="50" relative="1" as="geometry">
                        <mxPoint x="1250" y="1619" as="sourcePoint"/>
                        <mxPoint x="1320" y="1619" as="targetPoint"/>
                        <Array as="points">
                            <mxPoint x="1280" y="1619"/>
                        </Array>
                    </mxGeometry>
                </mxCell>
                <mxCell id="BKlgi4SIrofSlWjP2YXj-93" value="Block" style="rounded=0;whiteSpace=wrap;html=1;fontSize=24;fontFamily=Sora;fontSource=https%3A%2F%2Ffonts.googleapis.com%2Fcss%3Ffamily%3DSora;fontStyle=0" parent="1" vertex="1">
                    <mxGeometry x="1325" y="1589" width="150" height="60" as="geometry"/>
                </mxCell>
                <mxCell id="BKlgi4SIrofSlWjP2YXj-95" value="" style="endArrow=classic;html=1;rounded=0;fontSize=24;fontStyle=0;exitX=1;exitY=0.5;exitDx=0;exitDy=0;fontFamily=Sora;fontSource=https%3A%2F%2Ffonts.googleapis.com%2Fcss%3Ffamily%3DSora;" parent="1" source="BKlgi4SIrofSlWjP2YXj-93" edge="1">
                    <mxGeometry width="50" height="50" relative="1" as="geometry">
                        <mxPoint x="1520" y="1624" as="sourcePoint"/>
                        <mxPoint x="1570" y="1223" as="targetPoint"/>
                        <Array as="points">
                            <mxPoint x="1570" y="1619"/>
                        </Array>
                    </mxGeometry>
                </mxCell>
                <mxCell id="BKlgi4SIrofSlWjP2YXj-96" value="" style="endArrow=classic;html=1;rounded=0;fontSize=24;fontStyle=0;entryX=0;entryY=0.5;entryDx=0;entryDy=0;fontFamily=Sora;fontSource=https%3A%2F%2Ffonts.googleapis.com%2Fcss%3Ffamily%3DSora;" parent="1" target="BKlgi4SIrofSlWjP2YXj-97" edge="1">
                    <mxGeometry width="50" height="50" relative="1" as="geometry">
                        <mxPoint x="120" y="1223" as="sourcePoint"/>
                        <mxPoint x="165" y="1759" as="targetPoint"/>
                        <Array as="points">
                            <mxPoint x="120" y="1759"/>
                        </Array>
                    </mxGeometry>
                </mxCell>
                <mxCell id="BKlgi4SIrofSlWjP2YXj-97" value="Assign" style="rounded=0;whiteSpace=wrap;html=1;fontSize=24;fontFamily=Sora;fontSource=https%3A%2F%2Ffonts.googleapis.com%2Fcss%3Ffamily%3DSora;fontStyle=0" parent="1" vertex="1">
                    <mxGeometry x="180" y="1729" width="150" height="60" as="geometry"/>
                </mxCell>
                <mxCell id="BKlgi4SIrofSlWjP2YXj-98" value="" style="endArrow=classic;html=1;rounded=0;fontSize=24;fontStyle=0;exitX=1;exitY=0.5;exitDx=0;exitDy=0;fontFamily=Sora;fontSource=https%3A%2F%2Ffonts.googleapis.com%2Fcss%3Ffamily%3DSora;" parent="1" source="BKlgi4SIrofSlWjP2YXj-97" edge="1">
                    <mxGeometry width="50" height="50" relative="1" as="geometry">
                        <mxPoint x="1520" y="1709" as="sourcePoint"/>
                        <mxPoint x="1630" y="1223" as="targetPoint"/>
                        <Array as="points">
                            <mxPoint x="1630" y="1759"/>
                        </Array>
                    </mxGeometry>
                </mxCell>
                <mxCell id="BKlgi4SIrofSlWjP2YXj-99" value="Assign" style="text;html=1;strokeColor=none;fillColor=none;align=center;verticalAlign=middle;whiteSpace=wrap;rounded=0;fontStyle=0;labelBackgroundColor=none;fontColor=#000000;fontFamily=Sora;fontSource=https%3A%2F%2Ffonts.googleapis.com%2Fcss%3Ffamily%3DSora;fontSize=24;" parent="1" vertex="1">
                    <mxGeometry x="80" y="2210" width="140" height="30" as="geometry"/>
                </mxCell>
                <mxCell id="BKlgi4SIrofSlWjP2YXj-100" value="" style="endArrow=classic;html=1;rounded=0;fontSize=24;fontStyle=0;exitX=0;exitY=0.5;exitDx=0;exitDy=0;fontFamily=Sora;fontSource=https%3A%2F%2Ffonts.googleapis.com%2Fcss%3Ffamily%3DSora;" parent="1" source="BKlgi4SIrofSlWjP2YXj-38" edge="1">
                    <mxGeometry width="50" height="50" relative="1" as="geometry">
                        <mxPoint x="2010" y="760" as="sourcePoint"/>
                        <mxPoint x="1900" y="630" as="targetPoint"/>
                        <Array as="points">
                            <mxPoint x="1900" y="710"/>
                        </Array>
                    </mxGeometry>
                </mxCell>
                <mxCell id="BKlgi4SIrofSlWjP2YXj-101" value="" style="endArrow=classic;html=1;rounded=0;fontSize=24;fontStyle=0;entryX=1;entryY=0.5;entryDx=0;entryDy=0;fontFamily=Sora;fontSource=https%3A%2F%2Ffonts.googleapis.com%2Fcss%3Ffamily%3DSora;" parent="1" target="BKlgi4SIrofSlWjP2YXj-38" edge="1">
                    <mxGeometry width="50" height="50" relative="1" as="geometry">
                        <mxPoint x="2170" y="630" as="sourcePoint"/>
                        <mxPoint x="2100" y="730" as="targetPoint"/>
                        <Array as="points">
                            <mxPoint x="2170" y="710"/>
                        </Array>
                    </mxGeometry>
                </mxCell>
                <mxCell id="Kv_Zg9a_kmqH4UfuUk7p-1" value="" style="endArrow=classic;html=1;rounded=0;fontSize=24;fontStyle=0;entryX=0;entryY=0.5;entryDx=0;entryDy=0;fontFamily=Sora;fontSource=https%3A%2F%2Ffonts.googleapis.com%2Fcss%3Ffamily%3DSora;" parent="1" target="BKlgi4SIrofSlWjP2YXj-26" edge="1">
                    <mxGeometry width="50" height="50" relative="1" as="geometry">
                        <mxPoint x="1100" y="690" as="sourcePoint"/>
                        <mxPoint x="1100" y="780" as="targetPoint"/>
                        <Array as="points">
                            <mxPoint x="1100" y="780"/>
                        </Array>
                    </mxGeometry>
                </mxCell>
                <mxCell id="Kv_Zg9a_kmqH4UfuUk7p-2" value="" style="endArrow=classic;html=1;rounded=0;fontSize=24;fontStyle=0;entryX=0;entryY=0.5;entryDx=0;entryDy=0;fontFamily=Sora;fontSource=https%3A%2F%2Ffonts.googleapis.com%2Fcss%3Ffamily%3DSora;" parent="1" target="BKlgi4SIrofSlWjP2YXj-27" edge="1">
                    <mxGeometry width="50" height="50" relative="1" as="geometry">
                        <mxPoint x="1100" y="690" as="sourcePoint"/>
                        <mxPoint x="1210" y="790" as="targetPoint"/>
                        <Array as="points">
                            <mxPoint x="1100" y="880"/>
                        </Array>
                    </mxGeometry>
                </mxCell>
                <mxCell id="Kv_Zg9a_kmqH4UfuUk7p-3" value="" style="endArrow=classic;html=1;rounded=0;fontSize=24;fontStyle=0;entryX=0;entryY=0.5;entryDx=0;entryDy=0;fontFamily=Sora;fontSource=https%3A%2F%2Ffonts.googleapis.com%2Fcss%3Ffamily%3DSora;" parent="1" target="BKlgi4SIrofSlWjP2YXj-31" edge="1">
                    <mxGeometry width="50" height="50" relative="1" as="geometry">
                        <mxPoint x="1100" y="690" as="sourcePoint"/>
                        <mxPoint x="1220" y="800" as="targetPoint"/>
                        <Array as="points">
                            <mxPoint x="1100" y="980"/>
                        </Array>
                    </mxGeometry>
                </mxCell>
                <mxCell id="Kv_Zg9a_kmqH4UfuUk7p-5" value="" style="endArrow=classic;html=1;rounded=0;fontSize=24;fontStyle=0;exitX=1;exitY=0.5;exitDx=0;exitDy=0;fontFamily=Sora;fontSource=https%3A%2F%2Ffonts.googleapis.com%2Fcss%3Ffamily%3DSora;" parent="1" source="BKlgi4SIrofSlWjP2YXj-26" edge="1">
                    <mxGeometry width="50" height="50" relative="1" as="geometry">
                        <mxPoint x="1320" y="780.21" as="sourcePoint"/>
                        <mxPoint x="1450" y="690" as="targetPoint"/>
                        <Array as="points">
                            <mxPoint x="1380" y="780"/>
                            <mxPoint x="1380" y="690"/>
                        </Array>
                    </mxGeometry>
                </mxCell>
                <mxCell id="Kv_Zg9a_kmqH4UfuUk7p-6" value="" style="endArrow=classic;html=1;rounded=0;fontSize=24;fontStyle=0;exitX=1;exitY=0.5;exitDx=0;exitDy=0;fontFamily=Sora;fontSource=https%3A%2F%2Ffonts.googleapis.com%2Fcss%3Ffamily%3DSora;" parent="1" source="BKlgi4SIrofSlWjP2YXj-27" edge="1">
                    <mxGeometry width="50" height="50" relative="1" as="geometry">
                        <mxPoint x="1290" y="790" as="sourcePoint"/>
                        <mxPoint x="1450" y="690" as="targetPoint"/>
                        <Array as="points">
                            <mxPoint x="1380" y="880"/>
                            <mxPoint x="1380" y="690"/>
                        </Array>
                    </mxGeometry>
                </mxCell>
                <mxCell id="Kv_Zg9a_kmqH4UfuUk7p-7" value="" style="endArrow=classic;html=1;rounded=0;fontSize=24;fontStyle=0;exitX=1;exitY=0.5;exitDx=0;exitDy=0;fontFamily=Sora;fontSource=https%3A%2F%2Ffonts.googleapis.com%2Fcss%3Ffamily%3DSora;" parent="1" source="BKlgi4SIrofSlWjP2YXj-31" edge="1">
                    <mxGeometry width="50" height="50" relative="1" as="geometry">
                        <mxPoint x="1300" y="800" as="sourcePoint"/>
                        <mxPoint x="1450" y="690" as="targetPoint"/>
                        <Array as="points">
                            <mxPoint x="1380" y="980"/>
                            <mxPoint x="1380" y="690"/>
                        </Array>
                    </mxGeometry>
                </mxCell>
                <mxCell id="HJXj20KYBScDrpwhCcY_-1" value="var" style="ellipse;whiteSpace=wrap;html=1;fontSize=24;fontStyle=0;fontFamily=Sora;fontSource=https%3A%2F%2Ffonts.googleapis.com%2Fcss%3Ffamily%3DSora;" parent="1" vertex="1">
                    <mxGeometry x="170" y="1833" width="140" height="80" as="geometry"/>
                </mxCell>
                <mxCell id="HJXj20KYBScDrpwhCcY_-2" value="" style="endArrow=classic;html=1;rounded=0;fontSize=24;fontStyle=0;fontFamily=Sora;fontSource=https%3A%2F%2Ffonts.googleapis.com%2Fcss%3Ffamily%3DSora;" parent="1" target="HJXj20KYBScDrpwhCcY_-1" edge="1">
                    <mxGeometry width="50" height="50" relative="1" as="geometry">
                        <mxPoint x="120" y="1243" as="sourcePoint"/>
                        <mxPoint x="180" y="1769" as="targetPoint"/>
                        <Array as="points">
                            <mxPoint x="120" y="1873"/>
                        </Array>
                    </mxGeometry>
                </mxCell>
                <mxCell id="2" value="Identifier" style="ellipse;whiteSpace=wrap;html=1;fontSize=24;fontStyle=0;fontFamily=Sora;fontSource=https%3A%2F%2Ffonts.googleapis.com%2Fcss%3Ffamily%3DSora;" parent="1" vertex="1">
                    <mxGeometry x="390" y="1833" width="140" height="80" as="geometry"/>
                </mxCell>
                <mxCell id="3" value="int" style="ellipse;whiteSpace=wrap;html=1;fontSize=24;fontStyle=0;fontFamily=Sora;fontSource=https%3A%2F%2Ffonts.googleapis.com%2Fcss%3Ffamily%3DSora;" parent="1" vertex="1">
                    <mxGeometry x="610" y="1833" width="140" height="80" as="geometry"/>
                </mxCell>
                <mxCell id="4" value="" style="endArrow=classic;html=1;rounded=0;fontSize=24;fontStyle=0;entryX=0;entryY=0.5;entryDx=0;entryDy=0;fontFamily=Sora;fontSource=https%3A%2F%2Ffonts.googleapis.com%2Fcss%3Ffamily%3DSora;" parent="1" target="2" edge="1">
                    <mxGeometry width="50" height="50" relative="1" as="geometry">
                        <mxPoint x="310" y="1873" as="sourcePoint"/>
                        <mxPoint x="375" y="1872.6" as="targetPoint"/>
                        <Array as="points"/>
                    </mxGeometry>
                </mxCell>
                <mxCell id="5" value="" style="endArrow=classic;html=1;rounded=0;fontSize=24;fontStyle=0;exitX=1;exitY=0.5;exitDx=0;exitDy=0;entryX=0;entryY=0.5;entryDx=0;entryDy=0;fontFamily=Sora;fontSource=https%3A%2F%2Ffonts.googleapis.com%2Fcss%3Ffamily%3DSora;" parent="1" source="2" target="3" edge="1">
                    <mxGeometry width="50" height="50" relative="1" as="geometry">
                        <mxPoint x="320" y="1883" as="sourcePoint"/>
                        <mxPoint x="385" y="1883" as="targetPoint"/>
                        <Array as="points"/>
                    </mxGeometry>
                </mxCell>
                <mxCell id="12" value="string" style="ellipse;whiteSpace=wrap;html=1;fontSize=24;fontStyle=0;fontFamily=Sora;fontSource=https%3A%2F%2Ffonts.googleapis.com%2Fcss%3Ffamily%3DSora;" parent="1" vertex="1">
                    <mxGeometry x="610" y="1933" width="140" height="80" as="geometry"/>
                </mxCell>
                <mxCell id="13" value="" style="endArrow=classic;html=1;rounded=0;fontSize=24;fontStyle=0;entryX=0;entryY=0.5;entryDx=0;entryDy=0;fontFamily=Sora;fontSource=https%3A%2F%2Ffonts.googleapis.com%2Fcss%3Ffamily%3DSora;" parent="1" target="12" edge="1">
                    <mxGeometry width="50" height="50" relative="1" as="geometry">
                        <mxPoint x="550" y="1873" as="sourcePoint"/>
                        <mxPoint x="385" y="1983" as="targetPoint"/>
                        <Array as="points">
                            <mxPoint x="550" y="1973"/>
                        </Array>
                    </mxGeometry>
                </mxCell>
                <mxCell id="15" value="" style="endArrow=classic;html=1;rounded=0;fontSize=24;fontStyle=0;exitX=1;exitY=0.5;exitDx=0;exitDy=0;fontFamily=Sora;fontSource=https%3A%2F%2Ffonts.googleapis.com%2Fcss%3Ffamily%3DSora;" parent="1" source="12" edge="1">
                    <mxGeometry width="50" height="50" relative="1" as="geometry">
                        <mxPoint x="560" y="1883" as="sourcePoint"/>
                        <mxPoint x="810" y="1873" as="targetPoint"/>
                        <Array as="points">
                            <mxPoint x="810" y="1973"/>
                        </Array>
                    </mxGeometry>
                </mxCell>
                <mxCell id="16" value="" style="endArrow=classic;html=1;rounded=0;fontSize=24;fontStyle=0;exitX=1;exitY=0.5;exitDx=0;exitDy=0;fontFamily=Sora;fontSource=https%3A%2F%2Ffonts.googleapis.com%2Fcss%3Ffamily%3DSora;" parent="1" source="3" edge="1">
                    <mxGeometry width="50" height="50" relative="1" as="geometry">
                        <mxPoint x="770" y="1853" as="sourcePoint"/>
                        <mxPoint x="1700" y="1223" as="targetPoint"/>
                        <Array as="points">
                            <mxPoint x="1700" y="1873"/>
                        </Array>
                    </mxGeometry>
                </mxCell>
                <mxCell id="17" value="" style="endArrow=classic;html=1;rounded=0;fontSize=24;fontStyle=0;entryX=0;entryY=0.5;entryDx=0;entryDy=0;fontFamily=Sora;fontSource=https%3A%2F%2Ffonts.googleapis.com%2Fcss%3Ffamily%3DSora;" parent="1" target="18" edge="1">
                    <mxGeometry width="50" height="50" relative="1" as="geometry">
                        <mxPoint x="920" y="1873" as="sourcePoint"/>
                        <mxPoint x="980" y="1973" as="targetPoint"/>
                        <Array as="points">
                            <mxPoint x="920" y="1973"/>
                        </Array>
                    </mxGeometry>
                </mxCell>
                <mxCell id="18" value="=" style="ellipse;whiteSpace=wrap;html=1;fontSize=24;fontStyle=0;fontFamily=Sora;fontSource=https%3A%2F%2Ffonts.googleapis.com%2Fcss%3Ffamily%3DSora;" parent="1" vertex="1">
                    <mxGeometry x="980" y="1933" width="80" height="80" as="geometry"/>
                </mxCell>
                <mxCell id="19" value="" style="endArrow=classic;html=1;rounded=0;fontSize=24;fontStyle=0;entryX=0;entryY=0.5;entryDx=0;entryDy=0;exitX=1;exitY=0.5;exitDx=0;exitDy=0;fontFamily=Sora;fontSource=https%3A%2F%2Ffonts.googleapis.com%2Fcss%3Ffamily%3DSora;" parent="1" source="18" target="20" edge="1">
                    <mxGeometry width="50" height="50" relative="1" as="geometry">
                        <mxPoint x="1090" y="1973" as="sourcePoint"/>
                        <mxPoint x="1150" y="1973" as="targetPoint"/>
                        <Array as="points"/>
                    </mxGeometry>
                </mxCell>
                <mxCell id="20" value="Boolean Expression" style="rounded=0;whiteSpace=wrap;html=1;fontSize=24;fontFamily=Sora;fontSource=https%3A%2F%2Ffonts.googleapis.com%2Fcss%3Ffamily%3DSora;fontStyle=0" parent="1" vertex="1">
                    <mxGeometry x="1155" y="1943" width="150" height="60" as="geometry"/>
                </mxCell>
                <mxCell id="21" value="" style="endArrow=classic;html=1;rounded=0;fontSize=24;fontStyle=0;exitX=1;exitY=0.5;exitDx=0;exitDy=0;fontFamily=Sora;fontSource=https%3A%2F%2Ffonts.googleapis.com%2Fcss%3Ffamily%3DSora;" parent="1" source="20" edge="1">
                    <mxGeometry width="50" height="50" relative="1" as="geometry">
                        <mxPoint x="1310" y="1973" as="sourcePoint"/>
                        <mxPoint x="1370" y="1873" as="targetPoint"/>
                        <Array as="points">
                            <mxPoint x="1370" y="1973"/>
                        </Array>
                    </mxGeometry>
                </mxCell>
                <mxCell id="22" value="" style="endArrow=classic;html=1;rounded=0;fontSize=24;fontStyle=0;entryX=1;entryY=0.5;entryDx=0;entryDy=0;fontFamily=Sora;fontSource=https%3A%2F%2Ffonts.googleapis.com%2Fcss%3Ffamily%3DSora;" parent="1" target="23" edge="1">
                    <mxGeometry width="50" height="50" relative="1" as="geometry">
                        <mxPoint x="400" y="470" as="sourcePoint"/>
                        <mxPoint x="330" y="760" as="targetPoint"/>
                        <Array as="points">
                            <mxPoint x="400" y="756"/>
                        </Array>
                    </mxGeometry>
                </mxCell>
                <mxCell id="23" value="." style="ellipse;whiteSpace=wrap;html=1;fontSize=24;fontStyle=0;fontFamily=Sora;fontSource=https%3A%2F%2Ffonts.googleapis.com%2Fcss%3Ffamily%3DSora;" parent="1" vertex="1">
                    <mxGeometry x="230" y="716" width="80" height="80" as="geometry"/>
                </mxCell>
                <mxCell id="24" value="" style="endArrow=none;html=1;rounded=0;fontSize=24;fontStyle=0;exitX=0;exitY=0.5;exitDx=0;exitDy=0;endFill=0;fontFamily=Sora;fontSource=https%3A%2F%2Ffonts.googleapis.com%2Fcss%3Ffamily%3DSora;" parent="1" source="23" edge="1">
                    <mxGeometry width="50" height="50" relative="1" as="geometry">
                        <mxPoint x="239.9999999999999" y="665.9999999999999" as="sourcePoint"/>
                        <mxPoint x="120" y="470" as="targetPoint"/>
                        <Array as="points">
                            <mxPoint x="120" y="760"/>
                        </Array>
                    </mxGeometry>
                </mxCell>
                <mxCell id="25" value="" style="endArrow=classic;html=1;rounded=0;fontSize=24;fontStyle=0;exitX=1;exitY=0.5;exitDx=0;exitDy=0;entryX=0;entryY=0.5;entryDx=0;entryDy=0;fontFamily=Sora;fontSource=https%3A%2F%2Ffonts.googleapis.com%2Fcss%3Ffamily%3DSora;" parent="1" source="BKlgi4SIrofSlWjP2YXj-65" target="BKlgi4SIrofSlWjP2YXj-67" edge="1">
                    <mxGeometry width="50" height="50" relative="1" as="geometry">
                        <mxPoint x="1730.0000000000582" y="3424" as="sourcePoint"/>
                        <mxPoint x="1795" y="3424" as="targetPoint"/>
                        <Array as="points"/>
                    </mxGeometry>
                </mxCell>
                <mxCell id="26" value="" style="endArrow=classic;html=1;rounded=0;fontSize=24;fontStyle=0;entryX=0;entryY=0.5;entryDx=0;entryDy=0;fontFamily=Sora;fontSource=https%3A%2F%2Ffonts.googleapis.com%2Fcss%3Ffamily%3DSora;" parent="1" target="27" edge="1">
                    <mxGeometry width="50" height="50" relative="1" as="geometry">
                        <mxPoint x="1405" y="2314" as="sourcePoint"/>
                        <mxPoint x="1465" y="2494" as="targetPoint"/>
                        <Array as="points">
                            <mxPoint x="1405" y="2490"/>
                        </Array>
                    </mxGeometry>
                </mxCell>
                <mxCell id="27" value="Identifier" style="ellipse;whiteSpace=wrap;html=1;fontSize=24;fontStyle=0;fontFamily=Sora;fontSource=https%3A%2F%2Ffonts.googleapis.com%2Fcss%3Ffamily%3DSora;" parent="1" vertex="1">
                    <mxGeometry x="1475" y="2450" width="140" height="80" as="geometry"/>
                </mxCell>
                <mxCell id="28" value="" style="endArrow=none;html=1;rounded=0;fontSize=24;fontStyle=0;exitX=1;exitY=0.5;exitDx=0;exitDy=0;endFill=0;fontFamily=Sora;fontSource=https%3A%2F%2Ffonts.googleapis.com%2Fcss%3Ffamily%3DSora;" parent="1" source="27" edge="1">
                    <mxGeometry width="50" height="50" relative="1" as="geometry">
                        <mxPoint x="1625" y="2410" as="sourcePoint"/>
                        <mxPoint x="2320" y="2314" as="targetPoint"/>
                        <Array as="points">
                            <mxPoint x="2320" y="2490"/>
                        </Array>
                    </mxGeometry>
                </mxCell>
                <mxCell id="29" value="Declaration" style="text;html=1;strokeColor=none;fillColor=none;align=center;verticalAlign=middle;whiteSpace=wrap;rounded=0;fontStyle=0;labelBackgroundColor=none;fontColor=#000000;fontFamily=Sora;fontSource=https%3A%2F%2Ffonts.googleapis.com%2Fcss%3Ffamily%3DSora;fontSize=24;" vertex="1" parent="1">
                    <mxGeometry x="500" y="33" width="150" height="30" as="geometry"/>
                </mxCell>
                <mxCell id="31" value="" style="endArrow=classic;html=1;rounded=0;fontSize=24;fontStyle=0;entryX=0;entryY=0.5;entryDx=0;entryDy=0;fontFamily=Sora;fontSource=https%3A%2F%2Ffonts.googleapis.com%2Fcss%3Ffamily%3DSora;" edge="1" parent="1" target="32">
                    <mxGeometry width="50" height="50" relative="1" as="geometry">
                        <mxPoint x="520" y="120" as="sourcePoint"/>
                        <mxPoint x="620" y="123" as="targetPoint"/>
                    </mxGeometry>
                </mxCell>
                <mxCell id="32" value="func" style="ellipse;whiteSpace=wrap;html=1;fontSize=24;fontStyle=0;fontFamily=Sora;fontSource=https%3A%2F%2Ffonts.googleapis.com%2Fcss%3Ffamily%3DSora;" vertex="1" parent="1">
                    <mxGeometry x="620" y="80" width="80" height="80" as="geometry"/>
                </mxCell>
                <mxCell id="33" value="" style="endArrow=classic;html=1;rounded=0;fontSize=24;fontStyle=0;entryX=0;entryY=0.5;entryDx=0;entryDy=0;exitX=1;exitY=0.5;exitDx=0;exitDy=0;fontFamily=Sora;fontSource=https%3A%2F%2Ffonts.googleapis.com%2Fcss%3Ffamily%3DSora;" edge="1" parent="1" target="34" source="32">
                    <mxGeometry width="50" height="50" relative="1" as="geometry">
                        <mxPoint x="700.0000000000009" y="123" as="sourcePoint"/>
                        <mxPoint x="750" y="123" as="targetPoint"/>
                    </mxGeometry>
                </mxCell>
                <mxCell id="34" value="identifier" style="ellipse;whiteSpace=wrap;html=1;fontSize=24;fontStyle=0;fontFamily=Sora;fontSource=https%3A%2F%2Ffonts.googleapis.com%2Fcss%3Ffamily%3DSora;" vertex="1" parent="1">
                    <mxGeometry x="750" y="80" width="150" height="80" as="geometry"/>
                </mxCell>
                <mxCell id="35" value="" style="endArrow=classic;html=1;rounded=0;fontSize=24;fontStyle=0;exitX=1;exitY=0.5;exitDx=0;exitDy=0;entryX=0;entryY=0.5;entryDx=0;entryDy=0;fontFamily=Sora;fontSource=https%3A%2F%2Ffonts.googleapis.com%2Fcss%3Ffamily%3DSora;" edge="1" parent="1" source="34" target="40">
                    <mxGeometry width="50" height="50" relative="1" as="geometry">
                        <mxPoint x="850" y="123" as="sourcePoint"/>
                        <mxPoint x="980" y="123" as="targetPoint"/>
                    </mxGeometry>
                </mxCell>
                <mxCell id="40" value="(" style="ellipse;whiteSpace=wrap;html=1;fontSize=24;fontStyle=0;fontFamily=Sora;fontSource=https%3A%2F%2Ffonts.googleapis.com%2Fcss%3Ffamily%3DSora;" vertex="1" parent="1">
                    <mxGeometry x="970" y="80" width="80" height="80" as="geometry"/>
                </mxCell>
                <mxCell id="41" value="" style="endArrow=classic;html=1;rounded=0;fontSize=24;fontStyle=0;exitX=1;exitY=0.5;exitDx=0;exitDy=0;entryX=0.009;entryY=0.476;entryDx=0;entryDy=0;entryPerimeter=0;fontFamily=Sora;fontSource=https%3A%2F%2Ffonts.googleapis.com%2Fcss%3Ffamily%3DSora;" edge="1" parent="1" source="40" target="42">
                    <mxGeometry width="50" height="50" relative="1" as="geometry">
                        <mxPoint x="1149.9999999999995" y="122.09" as="sourcePoint"/>
                        <mxPoint x="1250.0000000000005" y="122.09" as="targetPoint"/>
                    </mxGeometry>
                </mxCell>
                <mxCell id="42" value=")" style="ellipse;whiteSpace=wrap;html=1;fontSize=24;fontStyle=0;fontFamily=Sora;fontSource=https%3A%2F%2Ffonts.googleapis.com%2Fcss%3Ffamily%3DSora;" vertex="1" parent="1">
                    <mxGeometry x="1580" y="83" width="80" height="80" as="geometry"/>
                </mxCell>
                <mxCell id="43" value="Identifier" style="ellipse;whiteSpace=wrap;html=1;fontSize=24;fontStyle=0;fontFamily=Sora;fontSource=https%3A%2F%2Ffonts.googleapis.com%2Fcss%3Ffamily%3DSora;" vertex="1" parent="1">
                    <mxGeometry x="1150" y="198" width="140" height="80" as="geometry"/>
                </mxCell>
                <mxCell id="44" value="int" style="ellipse;whiteSpace=wrap;html=1;fontSize=24;fontStyle=0;fontFamily=Sora;fontSource=https%3A%2F%2Ffonts.googleapis.com%2Fcss%3Ffamily%3DSora;" vertex="1" parent="1">
                    <mxGeometry x="1355" y="208" width="110" height="62" as="geometry"/>
                </mxCell>
                <mxCell id="45" value="" style="endArrow=classic;html=1;rounded=0;fontSize=24;fontStyle=0;entryX=-0.003;entryY=0.522;entryDx=0;entryDy=0;entryPerimeter=0;fontFamily=Sora;fontSource=https%3A%2F%2Ffonts.googleapis.com%2Fcss%3Ffamily%3DSora;" edge="1" parent="1" target="44">
                    <mxGeometry width="50" height="50" relative="1" as="geometry">
                        <mxPoint x="1290" y="240" as="sourcePoint"/>
                        <mxPoint x="1125" y="233" as="targetPoint"/>
                        <Array as="points"/>
                    </mxGeometry>
                </mxCell>
                <mxCell id="46" value="string" style="ellipse;whiteSpace=wrap;html=1;fontSize=24;fontStyle=0;fontFamily=Sora;fontSource=https%3A%2F%2Ffonts.googleapis.com%2Fcss%3Ffamily%3DSora;" vertex="1" parent="1">
                    <mxGeometry x="1360" y="286" width="100" height="62" as="geometry"/>
                </mxCell>
                <mxCell id="47" value="" style="endArrow=classic;html=1;rounded=0;fontSize=24;fontStyle=0;entryX=0.001;entryY=0.545;entryDx=0;entryDy=0;exitX=0.999;exitY=0.524;exitDx=0;exitDy=0;exitPerimeter=0;entryPerimeter=0;fontFamily=Sora;fontSource=https%3A%2F%2Ffonts.googleapis.com%2Fcss%3Ffamily%3DSora;" edge="1" parent="1" target="46" source="43">
                    <mxGeometry width="50" height="50" relative="1" as="geometry">
                        <mxPoint x="1290" y="222.99999999999977" as="sourcePoint"/>
                        <mxPoint x="1125" y="333" as="targetPoint"/>
                        <Array as="points">
                            <mxPoint x="1320" y="240"/>
                            <mxPoint x="1320" y="320"/>
                        </Array>
                    </mxGeometry>
                </mxCell>
                <mxCell id="48" value="" style="endArrow=classic;html=1;rounded=0;fontSize=24;fontStyle=0;exitX=0.993;exitY=0.543;exitDx=0;exitDy=0;exitPerimeter=0;fontFamily=Sora;fontSource=https%3A%2F%2Ffonts.googleapis.com%2Fcss%3Ffamily%3DSora;" edge="1" parent="1" source="46">
                    <mxGeometry width="50" height="50" relative="1" as="geometry">
                        <mxPoint x="1300" y="233" as="sourcePoint"/>
                        <mxPoint x="1520" y="120" as="targetPoint"/>
                        <Array as="points">
                            <mxPoint x="1520" y="320"/>
                        </Array>
                    </mxGeometry>
                </mxCell>
                <mxCell id="49" value="" style="endArrow=classic;html=1;rounded=0;fontSize=24;fontStyle=0;exitX=1;exitY=0.5;exitDx=0;exitDy=0;entryX=0.001;entryY=0.526;entryDx=0;entryDy=0;entryPerimeter=0;fontFamily=Sora;fontSource=https%3A%2F%2Ffonts.googleapis.com%2Fcss%3Ffamily%3DSora;" edge="1" parent="1" source="40" target="43">
                    <mxGeometry width="50" height="50" relative="1" as="geometry">
                        <mxPoint x="910" y="133" as="sourcePoint"/>
                        <mxPoint x="1110" y="230" as="targetPoint"/>
                        <Array as="points">
                            <mxPoint x="1080" y="120"/>
                            <mxPoint x="1080" y="240"/>
                        </Array>
                    </mxGeometry>
                </mxCell>
                <mxCell id="50" value="" style="endArrow=classic;html=1;rounded=0;fontSize=24;fontStyle=0;exitX=1;exitY=0.5;exitDx=0;exitDy=0;fontFamily=Sora;fontSource=https%3A%2F%2Ffonts.googleapis.com%2Fcss%3Ffamily%3DSora;" edge="1" parent="1" source="44">
                    <mxGeometry width="50" height="50" relative="1" as="geometry">
                        <mxPoint x="1520" y="252.82" as="sourcePoint"/>
                        <mxPoint x="1520" y="120" as="targetPoint"/>
                        <Array as="points">
                            <mxPoint x="1520" y="240"/>
                        </Array>
                    </mxGeometry>
                </mxCell>
                <mxCell id="51" value="" style="endArrow=classic;html=1;rounded=0;fontSize=24;fontStyle=0;exitX=1;exitY=0.5;exitDx=0;exitDy=0;entryX=1;entryY=0.5;entryDx=0;entryDy=0;fontFamily=Sora;fontSource=https%3A%2F%2Ffonts.googleapis.com%2Fcss%3Ffamily%3DSora;" edge="1" parent="1" source="44" target="52">
                    <mxGeometry width="50" height="50" relative="1" as="geometry">
                        <mxPoint x="1469.3000000000002" y="329.66599999999994" as="sourcePoint"/>
                        <mxPoint x="1520" y="440" as="targetPoint"/>
                        <Array as="points">
                            <mxPoint x="1520" y="239"/>
                            <mxPoint x="1520" y="440"/>
                        </Array>
                    </mxGeometry>
                </mxCell>
                <mxCell id="52" value="," style="ellipse;whiteSpace=wrap;html=1;fontSize=24;fontStyle=0;fontFamily=Sora;fontSource=https%3A%2F%2Ffonts.googleapis.com%2Fcss%3Ffamily%3DSora;" vertex="1" parent="1">
                    <mxGeometry x="1241" y="400" width="80" height="80" as="geometry"/>
                </mxCell>
                <mxCell id="54" value="" style="endArrow=classic;html=1;rounded=0;fontSize=24;fontStyle=0;exitX=0;exitY=0.5;exitDx=0;exitDy=0;fontFamily=Sora;fontSource=https%3A%2F%2Ffonts.googleapis.com%2Fcss%3Ffamily%3DSora;" edge="1" parent="1" source="52">
                    <mxGeometry width="50" height="50" relative="1" as="geometry">
                        <mxPoint x="1060" y="130" as="sourcePoint"/>
                        <mxPoint x="1120" y="240" as="targetPoint"/>
                        <Array as="points">
                            <mxPoint x="1120" y="440"/>
                            <mxPoint x="1120" y="340"/>
                        </Array>
                    </mxGeometry>
                </mxCell>
                <mxCell id="55" value="" style="endArrow=classic;html=1;rounded=0;fontSize=24;fontStyle=0;exitX=1.003;exitY=0.473;exitDx=0;exitDy=0;exitPerimeter=0;entryX=0;entryY=0.5;entryDx=0;entryDy=0;fontFamily=Sora;fontSource=https%3A%2F%2Ffonts.googleapis.com%2Fcss%3Ffamily%3DSora;" edge="1" parent="1" source="42" target="56">
                    <mxGeometry width="50" height="50" relative="1" as="geometry">
                        <mxPoint x="910" y="130" as="sourcePoint"/>
                        <mxPoint x="1760" y="120" as="targetPoint"/>
                    </mxGeometry>
                </mxCell>
                <mxCell id="56" value="int" style="ellipse;whiteSpace=wrap;html=1;fontSize=24;fontStyle=0;fontFamily=Sora;fontSource=https%3A%2F%2Ffonts.googleapis.com%2Fcss%3Ffamily%3DSora;" vertex="1" parent="1">
                    <mxGeometry x="1765.1399999999999" y="89" width="110" height="62" as="geometry"/>
                </mxCell>
                <mxCell id="58" value="string" style="ellipse;whiteSpace=wrap;html=1;fontSize=24;fontStyle=0;fontFamily=Sora;fontSource=https%3A%2F%2Ffonts.googleapis.com%2Fcss%3Ffamily%3DSora;" vertex="1" parent="1">
                    <mxGeometry x="1770.1399999999999" y="166" width="100" height="62" as="geometry"/>
                </mxCell>
                <mxCell id="59" value="" style="endArrow=classic;html=1;rounded=0;fontSize=24;fontStyle=0;entryX=0.001;entryY=0.545;entryDx=0;entryDy=0;exitX=0.997;exitY=0.466;exitDx=0;exitDy=0;exitPerimeter=0;entryPerimeter=0;fontFamily=Sora;fontSource=https%3A%2F%2Ffonts.googleapis.com%2Fcss%3Ffamily%3DSora;" edge="1" parent="1" target="58" source="42">
                    <mxGeometry width="50" height="50" relative="1" as="geometry">
                        <mxPoint x="1699.9999999999995" y="119.91999999999996" as="sourcePoint"/>
                        <mxPoint x="1535.1399999999999" y="213" as="targetPoint"/>
                        <Array as="points">
                            <mxPoint x="1730" y="120"/>
                            <mxPoint x="1730.1399999999999" y="200"/>
                        </Array>
                    </mxGeometry>
                </mxCell>
                <mxCell id="60" value="" style="endArrow=classic;html=1;rounded=0;fontSize=24;fontStyle=0;exitX=0.993;exitY=0.543;exitDx=0;exitDy=0;exitPerimeter=0;fontFamily=Sora;fontSource=https%3A%2F%2Ffonts.googleapis.com%2Fcss%3Ffamily%3DSora;" edge="1" parent="1" source="58">
                    <mxGeometry width="50" height="50" relative="1" as="geometry">
                        <mxPoint x="1710.1399999999999" y="113" as="sourcePoint"/>
                        <mxPoint x="1930" y="120" as="targetPoint"/>
                        <Array as="points">
                            <mxPoint x="1930.1399999999999" y="200"/>
                        </Array>
                    </mxGeometry>
                </mxCell>
                <mxCell id="61" value="" style="endArrow=classic;html=1;rounded=0;fontSize=24;fontStyle=0;exitX=1;exitY=0.5;exitDx=0;exitDy=0;entryX=0;entryY=0.5;entryDx=0;entryDy=0;fontFamily=Sora;fontSource=https%3A%2F%2Ffonts.googleapis.com%2Fcss%3Ffamily%3DSora;" edge="1" parent="1" source="56" target="62">
                    <mxGeometry width="50" height="50" relative="1" as="geometry">
                        <mxPoint x="1930.1399999999999" y="132.82" as="sourcePoint"/>
                        <mxPoint x="1990" y="120" as="targetPoint"/>
                        <Array as="points">
                            <mxPoint x="1930.1399999999999" y="120"/>
                        </Array>
                    </mxGeometry>
                </mxCell>
                <mxCell id="62" value="&lt;span&gt;Block&lt;/span&gt;" style="rounded=0;whiteSpace=wrap;html=1;fontSize=24;fontFamily=Sora;fontSource=https%3A%2F%2Ffonts.googleapis.com%2Fcss%3Ffamily%3DSora;fontStyle=0" vertex="1" parent="1">
                    <mxGeometry x="2000" y="90" width="150" height="60" as="geometry"/>
                </mxCell>
                <mxCell id="63" value="\n" style="ellipse;whiteSpace=wrap;html=1;fontSize=24;fontStyle=0;fontFamily=Sora;fontSource=https%3A%2F%2Ffonts.googleapis.com%2Fcss%3Ffamily%3DSora;" vertex="1" parent="1">
                    <mxGeometry x="2250" y="80" width="80" height="80" as="geometry"/>
                </mxCell>
                <mxCell id="64" value="" style="endArrow=classic;html=1;rounded=0;fontSize=24;fontStyle=0;exitX=1;exitY=0.5;exitDx=0;exitDy=0;entryX=0;entryY=0.5;entryDx=0;entryDy=0;fontFamily=Sora;fontSource=https%3A%2F%2Ffonts.googleapis.com%2Fcss%3Ffamily%3DSora;" edge="1" parent="1" source="62" target="63">
                    <mxGeometry width="50" height="50" relative="1" as="geometry">
                        <mxPoint x="1670.2400000000002" y="130.84000000000003" as="sourcePoint"/>
                        <mxPoint x="2240" y="120" as="targetPoint"/>
                    </mxGeometry>
                </mxCell>
                <mxCell id="65" value="" style="endArrow=classic;html=1;rounded=0;fontSize=24;fontStyle=0;exitX=1;exitY=0.5;exitDx=0;exitDy=0;fontFamily=Sora;fontSource=https%3A%2F%2Ffonts.googleapis.com%2Fcss%3Ffamily%3DSora;" edge="1" parent="1" source="63">
                    <mxGeometry width="50" height="50" relative="1" as="geometry">
                        <mxPoint x="2410" y="133" as="sourcePoint"/>
                        <mxPoint x="2400" y="120" as="targetPoint"/>
                    </mxGeometry>
                </mxCell>
                <mxCell id="66" value="" style="endArrow=classic;html=1;rounded=0;fontSize=24;fontStyle=0;entryX=0;entryY=0.5;entryDx=0;entryDy=0;fontFamily=Sora;fontSource=https%3A%2F%2Ffonts.googleapis.com%2Fcss%3Ffamily%3DSora;" edge="1" parent="1" target="67">
                    <mxGeometry width="50" height="50" relative="1" as="geometry">
                        <mxPoint x="120" y="1229" as="sourcePoint"/>
                        <mxPoint x="160" y="2129" as="targetPoint"/>
                        <Array as="points">
                            <mxPoint x="120" y="2089"/>
                        </Array>
                    </mxGeometry>
                </mxCell>
                <mxCell id="67" value="return" style="ellipse;whiteSpace=wrap;html=1;fontSize=24;fontStyle=0;fontFamily=Sora;fontSource=https%3A%2F%2Ffonts.googleapis.com%2Fcss%3Ffamily%3DSora;" vertex="1" parent="1">
                    <mxGeometry x="165" y="2049" width="140" height="80" as="geometry"/>
                </mxCell>
                <mxCell id="68" value="Boolean Expression" style="rounded=0;whiteSpace=wrap;html=1;fontSize=24;fontFamily=Sora;fontSource=https%3A%2F%2Ffonts.googleapis.com%2Fcss%3Ffamily%3DSora;fontStyle=0" vertex="1" parent="1">
                    <mxGeometry x="385" y="2059" width="150" height="60" as="geometry"/>
                </mxCell>
                <mxCell id="69" value="" style="endArrow=classic;html=1;rounded=0;fontSize=24;fontStyle=0;exitX=1;exitY=0.5;exitDx=0;exitDy=0;entryX=0;entryY=0.5;entryDx=0;entryDy=0;fontFamily=Sora;fontSource=https%3A%2F%2Ffonts.googleapis.com%2Fcss%3Ffamily%3DSora;" edge="1" parent="1" source="67" target="68">
                    <mxGeometry width="50" height="50" relative="1" as="geometry">
                        <mxPoint x="320" y="2128.66" as="sourcePoint"/>
                        <mxPoint x="390" y="2129" as="targetPoint"/>
                        <Array as="points"/>
                    </mxGeometry>
                </mxCell>
                <mxCell id="70" value="" style="endArrow=classic;html=1;rounded=0;fontSize=24;fontStyle=0;exitX=1;exitY=0.5;exitDx=0;exitDy=0;fontFamily=Sora;fontSource=https%3A%2F%2Ffonts.googleapis.com%2Fcss%3Ffamily%3DSora;" edge="1" parent="1" source="68">
                    <mxGeometry width="50" height="50" relative="1" as="geometry">
                        <mxPoint x="760" y="1883" as="sourcePoint"/>
                        <mxPoint x="1840" y="1229" as="targetPoint"/>
                        <Array as="points">
                            <mxPoint x="1840" y="2089"/>
                        </Array>
                    </mxGeometry>
                </mxCell>
                <mxCell id="71" value="" style="endArrow=classic;html=1;rounded=0;fontSize=24;fontStyle=0;exitX=1;exitY=0.5;exitDx=0;exitDy=0;fontFamily=Sora;fontSource=https%3A%2F%2Ffonts.googleapis.com%2Fcss%3Ffamily%3DSora;" edge="1" parent="1" source="BKlgi4SIrofSlWjP2YXj-77">
                    <mxGeometry width="50" height="50" relative="1" as="geometry">
                        <mxPoint x="345" y="2460" as="sourcePoint"/>
                        <mxPoint x="415" y="2460" as="targetPoint"/>
                        <Array as="points">
                            <mxPoint x="380" y="2310"/>
                            <mxPoint x="380" y="2460"/>
                        </Array>
                    </mxGeometry>
                </mxCell>
                <mxCell id="72" value="(" style="ellipse;whiteSpace=wrap;html=1;fontSize=24;fontStyle=0;fontFamily=Sora;fontSource=https%3A%2F%2Ffonts.googleapis.com%2Fcss%3Ffamily%3DSora;" vertex="1" parent="1">
                    <mxGeometry x="415" y="2420" width="80" height="80" as="geometry"/>
                </mxCell>
                <mxCell id="73" value="" style="endArrow=classic;html=1;rounded=0;fontSize=24;fontStyle=0;fontFamily=Sora;fontSource=https%3A%2F%2Ffonts.googleapis.com%2Fcss%3Ffamily%3DSora;exitX=1;exitY=0.5;exitDx=0;exitDy=0;entryX=0;entryY=0.5;entryDx=0;entryDy=0;" edge="1" parent="1" source="72" target="74">
                    <mxGeometry width="50" height="50" relative="1" as="geometry">
                        <mxPoint x="520" y="2440" as="sourcePoint"/>
                        <mxPoint x="570" y="2460" as="targetPoint"/>
                        <Array as="points">
                            <mxPoint x="530" y="2460"/>
                        </Array>
                    </mxGeometry>
                </mxCell>
                <mxCell id="74" value=")" style="ellipse;whiteSpace=wrap;html=1;fontSize=24;fontStyle=0;fontFamily=Sora;fontSource=https%3A%2F%2Ffonts.googleapis.com%2Fcss%3Ffamily%3DSora;" vertex="1" parent="1">
                    <mxGeometry x="840" y="2420" width="80" height="80" as="geometry"/>
                </mxCell>
                <mxCell id="75" value="Boolean &lt;span&gt;Expression&lt;/span&gt;" style="rounded=0;whiteSpace=wrap;html=1;fontSize=24;fontFamily=Sora;fontSource=https%3A%2F%2Ffonts.googleapis.com%2Fcss%3Ffamily%3DSora;fontStyle=0" vertex="1" parent="1">
                    <mxGeometry x="600" y="2530" width="150" height="60" as="geometry"/>
                </mxCell>
                <mxCell id="76" value="" style="endArrow=classic;html=1;rounded=0;fontSize=24;fontStyle=0;entryX=0;entryY=0.5;entryDx=0;entryDy=0;exitX=1;exitY=0.5;exitDx=0;exitDy=0;fontFamily=Sora;fontSource=https%3A%2F%2Ffonts.googleapis.com%2Fcss%3Ffamily%3DSora;" edge="1" parent="1" target="75" source="72">
                    <mxGeometry width="50" height="50" relative="1" as="geometry">
                        <mxPoint x="500" y="2550" as="sourcePoint"/>
                        <mxPoint x="510" y="2640" as="targetPoint"/>
                        <Array as="points">
                            <mxPoint x="540" y="2460"/>
                            <mxPoint x="540" y="2560"/>
                        </Array>
                    </mxGeometry>
                </mxCell>
                <mxCell id="77" value="" style="endArrow=classic;html=1;rounded=0;fontSize=24;fontStyle=0;exitX=1;exitY=0.5;exitDx=0;exitDy=0;fontFamily=Sora;fontSource=https%3A%2F%2Ffonts.googleapis.com%2Fcss%3Ffamily%3DSora;" edge="1" parent="1" source="75">
                    <mxGeometry width="50" height="50" relative="1" as="geometry">
                        <mxPoint x="505" y="2470" as="sourcePoint"/>
                        <mxPoint x="800" y="2460" as="targetPoint"/>
                        <Array as="points">
                            <mxPoint x="800" y="2560"/>
                        </Array>
                    </mxGeometry>
                </mxCell>
                <mxCell id="78" value="" style="endArrow=classic;html=1;rounded=0;fontSize=24;fontStyle=0;exitX=1;exitY=0.5;exitDx=0;exitDy=0;fontFamily=Sora;fontSource=https%3A%2F%2Ffonts.googleapis.com%2Fcss%3Ffamily%3DSora;" edge="1" parent="1" source="74">
                    <mxGeometry width="50" height="50" relative="1" as="geometry">
                        <mxPoint x="760" y="2570" as="sourcePoint"/>
                        <mxPoint x="1000" y="2310" as="targetPoint"/>
                        <Array as="points">
                            <mxPoint x="1000" y="2460"/>
                        </Array>
                    </mxGeometry>
                </mxCell>
                <mxCell id="79" value="" style="endArrow=classic;html=1;rounded=0;fontSize=24;fontStyle=0;exitX=1;exitY=0.5;exitDx=0;exitDy=0;fontFamily=Sora;fontSource=https%3A%2F%2Ffonts.googleapis.com%2Fcss%3Ffamily%3DSora;entryX=1;entryY=0.5;entryDx=0;entryDy=0;" edge="1" parent="1" source="75" target="80">
                    <mxGeometry width="50" height="50" relative="1" as="geometry">
                        <mxPoint x="770" y="2580" as="sourcePoint"/>
                        <mxPoint x="800" y="2680" as="targetPoint"/>
                        <Array as="points">
                            <mxPoint x="800" y="2560"/>
                            <mxPoint x="800" y="2680"/>
                        </Array>
                    </mxGeometry>
                </mxCell>
                <mxCell id="80" value="," style="ellipse;whiteSpace=wrap;html=1;fontSize=24;fontStyle=0;fontFamily=Sora;fontSource=https%3A%2F%2Ffonts.googleapis.com%2Fcss%3Ffamily%3DSora;" vertex="1" parent="1">
                    <mxGeometry x="635" y="2640" width="80" height="80" as="geometry"/>
                </mxCell>
                <mxCell id="82" value="" style="endArrow=classic;html=1;rounded=0;fontSize=24;fontStyle=0;exitX=0;exitY=0.5;exitDx=0;exitDy=0;fontFamily=Sora;fontSource=https%3A%2F%2Ffonts.googleapis.com%2Fcss%3Ffamily%3DSora;" edge="1" parent="1" source="80">
                    <mxGeometry width="50" height="50" relative="1" as="geometry">
                        <mxPoint x="760" y="2570" as="sourcePoint"/>
                        <mxPoint x="560" y="2560" as="targetPoint"/>
                        <Array as="points">
                            <mxPoint x="560" y="2680"/>
                            <mxPoint x="560" y="2620"/>
                        </Array>
                    </mxGeometry>
                </mxCell>
                <mxCell id="83" value="" style="endArrow=classic;html=1;rounded=0;fontSize=24;fontStyle=0;exitX=1;exitY=0.5;exitDx=0;exitDy=0;fontFamily=Sora;fontSource=https%3A%2F%2Ffonts.googleapis.com%2Fcss%3Ffamily%3DSora;" edge="1" parent="1" source="27">
                    <mxGeometry width="50" height="50" relative="1" as="geometry">
                        <mxPoint x="1619.99999999999" y="2490" as="sourcePoint"/>
                        <mxPoint x="1685" y="2640" as="targetPoint"/>
                        <Array as="points">
                            <mxPoint x="1650" y="2490"/>
                            <mxPoint x="1650" y="2640"/>
                        </Array>
                    </mxGeometry>
                </mxCell>
                <mxCell id="84" value="(" style="ellipse;whiteSpace=wrap;html=1;fontSize=24;fontStyle=0;fontFamily=Sora;fontSource=https%3A%2F%2Ffonts.googleapis.com%2Fcss%3Ffamily%3DSora;" vertex="1" parent="1">
                    <mxGeometry x="1685" y="2600" width="80" height="80" as="geometry"/>
                </mxCell>
                <mxCell id="85" value="" style="endArrow=classic;html=1;rounded=0;fontSize=24;fontStyle=0;fontFamily=Sora;fontSource=https%3A%2F%2Ffonts.googleapis.com%2Fcss%3Ffamily%3DSora;exitX=1;exitY=0.5;exitDx=0;exitDy=0;entryX=0;entryY=0.5;entryDx=0;entryDy=0;" edge="1" parent="1" source="84" target="86">
                    <mxGeometry width="50" height="50" relative="1" as="geometry">
                        <mxPoint x="1790" y="2620" as="sourcePoint"/>
                        <mxPoint x="1840" y="2640" as="targetPoint"/>
                        <Array as="points">
                            <mxPoint x="1800" y="2640"/>
                        </Array>
                    </mxGeometry>
                </mxCell>
                <mxCell id="86" value=")" style="ellipse;whiteSpace=wrap;html=1;fontSize=24;fontStyle=0;fontFamily=Sora;fontSource=https%3A%2F%2Ffonts.googleapis.com%2Fcss%3Ffamily%3DSora;" vertex="1" parent="1">
                    <mxGeometry x="2110" y="2600" width="80" height="80" as="geometry"/>
                </mxCell>
                <mxCell id="87" value="Boolean &lt;span&gt;Expression&lt;/span&gt;" style="rounded=0;whiteSpace=wrap;html=1;fontSize=24;fontFamily=Sora;fontSource=https%3A%2F%2Ffonts.googleapis.com%2Fcss%3Ffamily%3DSora;fontStyle=0" vertex="1" parent="1">
                    <mxGeometry x="1870" y="2710" width="150" height="60" as="geometry"/>
                </mxCell>
                <mxCell id="88" value="" style="endArrow=classic;html=1;rounded=0;fontSize=24;fontStyle=0;entryX=0;entryY=0.5;entryDx=0;entryDy=0;exitX=1;exitY=0.5;exitDx=0;exitDy=0;fontFamily=Sora;fontSource=https%3A%2F%2Ffonts.googleapis.com%2Fcss%3Ffamily%3DSora;" edge="1" parent="1" source="84" target="87">
                    <mxGeometry width="50" height="50" relative="1" as="geometry">
                        <mxPoint x="1770" y="2730" as="sourcePoint"/>
                        <mxPoint x="1780" y="2820" as="targetPoint"/>
                        <Array as="points">
                            <mxPoint x="1810" y="2640"/>
                            <mxPoint x="1810" y="2740"/>
                        </Array>
                    </mxGeometry>
                </mxCell>
                <mxCell id="89" value="" style="endArrow=classic;html=1;rounded=0;fontSize=24;fontStyle=0;exitX=1;exitY=0.5;exitDx=0;exitDy=0;fontFamily=Sora;fontSource=https%3A%2F%2Ffonts.googleapis.com%2Fcss%3Ffamily%3DSora;" edge="1" parent="1" source="87">
                    <mxGeometry width="50" height="50" relative="1" as="geometry">
                        <mxPoint x="1775" y="2650" as="sourcePoint"/>
                        <mxPoint x="2070" y="2640" as="targetPoint"/>
                        <Array as="points">
                            <mxPoint x="2070" y="2740"/>
                        </Array>
                    </mxGeometry>
                </mxCell>
                <mxCell id="90" value="" style="endArrow=classic;html=1;rounded=0;fontSize=24;fontStyle=0;exitX=1;exitY=0.5;exitDx=0;exitDy=0;fontFamily=Sora;fontSource=https%3A%2F%2Ffonts.googleapis.com%2Fcss%3Ffamily%3DSora;" edge="1" parent="1" source="86">
                    <mxGeometry width="50" height="50" relative="1" as="geometry">
                        <mxPoint x="2030" y="2750" as="sourcePoint"/>
                        <mxPoint x="2270" y="2490" as="targetPoint"/>
                        <Array as="points">
                            <mxPoint x="2270" y="2640"/>
                        </Array>
                    </mxGeometry>
                </mxCell>
                <mxCell id="91" value="" style="endArrow=classic;html=1;rounded=0;fontSize=24;fontStyle=0;exitX=1;exitY=0.5;exitDx=0;exitDy=0;fontFamily=Sora;fontSource=https%3A%2F%2Ffonts.googleapis.com%2Fcss%3Ffamily%3DSora;entryX=1;entryY=0.5;entryDx=0;entryDy=0;" edge="1" parent="1" source="87" target="92">
                    <mxGeometry width="50" height="50" relative="1" as="geometry">
                        <mxPoint x="2040" y="2760" as="sourcePoint"/>
                        <mxPoint x="2070" y="2860" as="targetPoint"/>
                        <Array as="points">
                            <mxPoint x="2070" y="2740"/>
                            <mxPoint x="2070" y="2860"/>
                        </Array>
                    </mxGeometry>
                </mxCell>
                <mxCell id="92" value="," style="ellipse;whiteSpace=wrap;html=1;fontSize=24;fontStyle=0;fontFamily=Sora;fontSource=https%3A%2F%2Ffonts.googleapis.com%2Fcss%3Ffamily%3DSora;" vertex="1" parent="1">
                    <mxGeometry x="1905" y="2820" width="80" height="80" as="geometry"/>
                </mxCell>
                <mxCell id="93" value="" style="endArrow=classic;html=1;rounded=0;fontSize=24;fontStyle=0;exitX=0;exitY=0.5;exitDx=0;exitDy=0;fontFamily=Sora;fontSource=https%3A%2F%2Ffonts.googleapis.com%2Fcss%3Ffamily%3DSora;" edge="1" parent="1" source="92">
                    <mxGeometry width="50" height="50" relative="1" as="geometry">
                        <mxPoint x="2030" y="2750" as="sourcePoint"/>
                        <mxPoint x="1830" y="2740" as="targetPoint"/>
                        <Array as="points">
                            <mxPoint x="1830" y="2860"/>
                            <mxPoint x="1830" y="2800"/>
                        </Array>
                    </mxGeometry>
                </mxCell>
            </root>
        </mxGraphModel>
    </diagram>
</mxfile>